<svg version="1.1" xmlns="http://www.w3.org/2000/svg" viewBox="0 0 1833.8465456091672 2741.4036102960085" width="5501.539636827501" height="8224.210830888025">
  <!-- svg-source:excalidraw -->
  
  <defs>
    <style class="style-fonts">
      @font-face {
        font-family: "Virgil";
        src: url("https://excalidraw.com/Virgil.woff2");
      }
      @font-face {
        font-family: "Cascadia";
        src: url("https://excalidraw.com/Cascadia.woff2");
      }
    </style>
    
  </defs>
  <rect x="0" y="0" width="1833.8465456091672" height="2741.4036102960085" fill="#ffffff"></rect><g stroke-linecap="round" transform="translate(1085.446582230261 265.3999481201172) rotate(0 114 42.5)"><path d="M21.25 0 M21.25 0 C64.99 1.29, 109.12 -1.27, 206.75 0 M21.25 0 C64.46 0.83, 107.08 0.52, 206.75 0 M206.75 0 C220.89 -0.98, 229.27 7.89, 228 21.25 M206.75 0 C219.81 1.88, 226.75 7.56, 228 21.25 M228 21.25 C228.24 31.87, 227.19 39.77, 228 63.75 M228 21.25 C227.62 34.22, 227.87 47.47, 228 63.75 M228 63.75 C228.84 78.6, 221.05 83.4, 206.75 85 M228 63.75 C229.39 78.47, 219.34 82.95, 206.75 85 M206.75 85 C148.22 83.35, 85.72 83.21, 21.25 85 M206.75 85 C143.38 84.71, 79.03 85.19, 21.25 85 M21.25 85 C8.86 83.45, 0.76 78.9, 0 63.75 M21.25 85 C9.07 86.65, -0.59 79.19, 0 63.75 M0 63.75 C0.15 54.93, -0.76 47.03, 0 21.25 M0 63.75 C-0.69 48.78, -0.63 34.88, 0 21.25 M0 21.25 C-0.8 6.63, 6.7 0.79, 21.25 0 M0 21.25 C-0.53 5.08, 6.35 -1.2, 21.25 0" stroke="#1e1e1e" stroke-width="1" fill="none"></path></g><g transform="translate(1159.4466203772336 295.3999481201172) rotate(0 39.999961853027344 12.5)"><text x="39.999961853027344" y="0" font-family="Virgil, Segoe UI Emoji" font-size="20px" fill="#1e1e1e" text-anchor="middle" style="white-space: pre;" direction="ltr" dominant-baseline="text-before-edge">reactive</text></g><g mask="url(#mask-6M4CF06wPZEe_DjP34Kut)" stroke-linecap="round"><g transform="translate(1206.936793851504 359.8000030517578) rotate(0 0.04106414581156059 54.280909497863945)"><path d="M-0.52 -0.34 C-0.83 17.8, -0.66 90.66, -0.83 108.99 M1.41 -1.56 C0.93 16.7, -0.71 91.37, -1.32 110.13" stroke="#1e1e1e" stroke-width="1" fill="none"></path></g><g transform="translate(1206.936793851504 359.8000030517578) rotate(0 0.04106414581156059 54.280909497863945)"><path d="M-11.4 83.13 C-8.45 92.83, -3.67 104.78, -2.21 112.05 M-10.43 81.95 C-6.64 91.93, -3 100.68, -0.91 110.47" stroke="#1e1e1e" stroke-width="1" fill="none"></path></g><g transform="translate(1206.936793851504 359.8000030517578) rotate(0 0.04106414581156059 54.280909497863945)"><path d="M9.12 83.67 C4.22 93.08, 1.16 104.82, -2.21 112.05 M10.09 82.5 C6.74 92.48, 3.24 101.05, -0.91 110.47" stroke="#1e1e1e" stroke-width="1" fill="none"></path></g></g><mask id="mask-6M4CF06wPZEe_DjP34Kut"><rect x="0" y="0" fill="#fff" width="1308.642445741721" height="569.5646644458461"></rect><rect x="1186.0839679063956" y="402.18233374880197" fill="#000" width="40" height="25" opacity="1"></rect></mask><g transform="translate(1186.0839679063956 402.18233374880197) rotate(0 20.893890090919967 11.898578800819791)"><text x="20" y="0" font-family="Virgil, Segoe UI Emoji" font-size="20px" fill="#1e1e1e" text-anchor="middle" style="white-space: pre;" direction="ltr" dominant-baseline="text-before-edge">得到</text></g><g stroke-linecap="round" transform="translate(1551.0465578161984 255.8000030517578) rotate(0 122.79998779296875 49.600006103515625)"><path d="M24.8 0 M24.8 0 C99.68 -2.32, 170.73 -2.65, 220.8 0 M24.8 0 C94.62 0.35, 163.95 -1.36, 220.8 0 M220.8 0 C236.96 -0.86, 245 10.06, 245.6 24.8 M220.8 0 C239.35 -0.73, 244.28 10.48, 245.6 24.8 M245.6 24.8 C245.4 42.11, 244.13 62.97, 245.6 74.4 M245.6 24.8 C245.81 42.18, 246.14 60.53, 245.6 74.4 M245.6 74.4 C246.07 90.22, 235.65 101.2, 220.8 99.2 M245.6 74.4 C246.91 89.9, 236.3 100.29, 220.8 99.2 M220.8 99.2 C150.75 98.31, 81.1 99.52, 24.8 99.2 M220.8 99.2 C145.36 98.2, 68.64 97.64, 24.8 99.2 M24.8 99.2 C9.79 98.95, -0.42 92.32, 0 74.4 M24.8 99.2 C10.09 97.35, 1.19 92.18, 0 74.4 M0 74.4 C-0.96 60.55, -1.27 43.36, 0 24.8 M0 74.4 C-1.09 55.45, -1 38.58, 0 24.8 M0 24.8 C-1.05 7.77, 8.23 0.34, 24.8 0 M0 24.8 C1.07 10.11, 10.51 -0.84, 24.8 0" stroke="#1e1e1e" stroke-width="1" fill="none"></path></g><g transform="translate(1642.5165819250851 292.90000915527344) rotate(0 31.32996368408203 12.5)"><text x="31.32996368408203" y="0" font-family="Virgil, Segoe UI Emoji" font-size="20px" fill="#1e1e1e" text-anchor="middle" style="white-space: pre;" direction="ltr" dominant-baseline="text-before-edge">effect</text></g><g mask="url(#mask-fCTBWPHcrJQw3PerFspEm)" stroke-linecap="round"><g transform="translate(1655.9669893373568 578.2001190185547) rotate(0 5.857258282454268 71.54870340910742)"><path d="M-0.92 0.15 C1.04 24.23, 10.55 120.15, 12.63 143.91 M0.8 -0.81 C2.6 22.97, 10.47 118.06, 12.12 142.16" stroke="#1e1e1e" stroke-width="1" fill="none"></path></g><g transform="translate(1655.9669893373568 578.2001190185547) rotate(0 5.857258282454268 71.54870340910742)"><path d="M-0.01 116.21 C5.42 124.75, 8.07 136.16, 11.43 142.76 M-0.6 115.61 C4.98 123.91, 8.47 133.92, 13.12 142.92" stroke="#1e1e1e" stroke-width="1" fill="none"></path></g><g transform="translate(1655.9669893373568 578.2001190185547) rotate(0 5.857258282454268 71.54870340910742)"><path d="M20.45 114.64 C18.23 123.62, 13.24 135.61, 11.43 142.76 M19.86 114.05 C17.95 123.02, 13.97 133.6, 13.12 142.92" stroke="#1e1e1e" stroke-width="1" fill="none"></path></g></g><mask id="mask-fCTBWPHcrJQw3PerFspEm"><rect x="0" y="0" fill="#fff" width="1767.7746122726846" height="821.4000701904297"></rect><rect x="1641.8708008050205" y="637.3000946044922" fill="#000" width="40" height="25" opacity="1"></rect></mask><g transform="translate(1641.8708008050207 637.3000946044922) rotate(0 19.953446814790368 12.448727823169918)"><text x="20" y="0" font-family="Virgil, Segoe UI Emoji" font-size="20px" fill="#1e1e1e" text-anchor="middle" style="white-space: pre;" direction="ltr" dominant-baseline="text-before-edge">执行</text></g><g stroke-linecap="round" transform="translate(1539.046435745886 731.8001556396484) rotate(0 142.40005493164062 57.99998474121094)"><path d="M29 0 M29 0 C82.59 0.4, 133.09 -0.26, 255.8 0 M29 0 C83.89 0.55, 140.19 1.25, 255.8 0 M255.8 0 C276.07 -0.24, 283.34 8.29, 284.8 29 M255.8 0 C276.82 -2.11, 285.53 9.63, 284.8 29 M284.8 29 C284.71 49.22, 284.3 73.75, 284.8 87 M284.8 29 C284.62 48.01, 285.13 68.23, 284.8 87 M284.8 87 C283.18 105.64, 276.44 116.85, 255.8 116 M284.8 87 C285.71 106.11, 274.05 117.98, 255.8 116 M255.8 116 C198.49 115.14, 144.01 116.41, 29 116 M255.8 116 C181.02 115.39, 106.98 116.17, 29 116 M29 116 C7.9 117.72, -0.02 105.82, 0 87 M29 116 C7.99 115.37, -1.43 107.31, 0 87 M0 87 C0.85 74.55, 0.47 64.73, 0 29 M0 87 C-0.6 68.91, -0.67 49.2, 0 29 M0 29 C-0.3 7.95, 10.85 1.4, 29 0 M0 29 C-0.93 9.85, 7.95 -1, 29 0" stroke="#1e1e1e" stroke-width="1" fill="none"></path></g><g transform="translate(1600.3465684973507 777.3001403808594) rotate(0 81.09992218017578 12.5)"><text x="81.09992218017578" y="0" font-family="Virgil, Segoe UI Emoji" font-size="20px" fill="#1e1e1e" text-anchor="middle" style="white-space: pre;" direction="ltr" dominant-baseline="text-before-edge">effectFn.runner()</text></g><g mask="url(#mask-rzl3l8yZemh2uT7x2c69L)" stroke-linecap="round"><g transform="translate(1672.864698188439 867.2000885009766) rotate(0 -2.867386068924361 132.60119732283056)"><path d="M-1.13 -1.17 C-1.9 43.09, -4.94 222.02, -5.67 266.37 M0.48 0.83 C-0.29 44.68, -5.18 220.48, -6.22 264.65" stroke="#1e1e1e" stroke-width="1" fill="none"></path></g><g transform="translate(1672.864698188439 867.2000885009766) rotate(0 -2.867386068924361 132.60119732283056)"><path d="M-17.7 237.47 C-12.23 243.96, -12.62 248.76, -7.09 264.44 M-15.34 236.2 C-13.39 241.12, -11.5 246.94, -5.39 264.87" stroke="#1e1e1e" stroke-width="1" fill="none"></path></g><g transform="translate(1672.864698188439 867.2000885009766) rotate(0 -2.867386068924361 132.60119732283056)"><path d="M2.82 238 C3.9 244.19, -0.86 248.87, -7.09 264.44 M5.18 236.73 C2.94 241.61, 0.64 247.32, -5.39 264.87" stroke="#1e1e1e" stroke-width="1" fill="none"></path></g></g><mask id="mask-rzl3l8yZemh2uT7x2c69L"><rect x="0" y="0" fill="#fff" width="1779.2911155294832" height="1232.8000030517578"></rect><rect x="1629.5714953162565" y="980.0000457763672" fill="#000" width="80.15998840332031" height="40" opacity="1"></rect></mask><g transform="translate(1629.5714953162567 980.0000457763672) rotate(0 40.42581680325793 19.801240047439933)"><text x="40.079994201660156" y="0" font-family="Virgil, Segoe UI Emoji" font-size="16px" fill="#1e1e1e" text-anchor="middle" style="white-space: pre;" direction="ltr" dominant-baseline="text-before-edge"></text><text x="40.079994201660156" y="20" font-family="Virgil, Segoe UI Emoji" font-size="16px" fill="#1e1e1e" text-anchor="middle" style="white-space: pre;" direction="ltr" dominant-baseline="text-before-edge">实际执行cb</text></g><g stroke-linecap="round" transform="translate(1497.4465211951047 1137.6000518798828) rotate(0 157.20001220703125 59.199981689453125)"><path d="M29.6 0 M29.6 0 C111.96 0.66, 193.72 3.45, 284.8 0 M29.6 0 C118.09 -1.68, 207.6 -1.42, 284.8 0 M284.8 0 C302.67 -0.76, 312.84 11.79, 314.4 29.6 M284.8 0 C305.5 0.78, 313.91 8.06, 314.4 29.6 M314.4 29.6 C312.62 48.03, 315.48 63.01, 314.4 88.8 M314.4 29.6 C314.3 42.86, 314.83 53.62, 314.4 88.8 M314.4 88.8 C315.47 107.89, 303.24 117.38, 284.8 118.4 M314.4 88.8 C314.57 109.57, 305.42 117.39, 284.8 118.4 M284.8 118.4 C185.89 119.05, 86.42 121.09, 29.6 118.4 M284.8 118.4 C195.89 120.41, 107.88 119.88, 29.6 118.4 M29.6 118.4 C10.9 120.17, -0.54 107.69, 0 88.8 M29.6 118.4 C8.15 117.66, -1.83 107.08, 0 88.8 M0 88.8 C1.02 77.48, 1.47 65.12, 0 29.6 M0 88.8 C-0.12 67.28, 0 46.17, 0 29.6 M0 29.6 C0.71 8.98, 8.51 0.27, 29.6 0 M0 29.6 C-0.31 11.54, 8.4 -1.46, 29.6 0" stroke="#1e1e1e" stroke-width="1" fill="none"></path></g><g transform="translate(1595.5565523230343 1184.300033569336) rotate(0 59.08998107910156 12.5)"><text x="59.08998107910156" y="0" font-family="Virgil, Segoe UI Emoji" font-size="20px" fill="#1e1e1e" text-anchor="middle" style="white-space: pre;" direction="ltr" dominant-baseline="text-before-edge">访问 data.a</text></g><g stroke-linecap="round" transform="translate(1141.446582230261 23) rotate(0 66.79998779296875 70.5)"><path d="M56.23 0.42 C65.29 -2.29, 76.54 0.24, 85.75 3.17 C94.96 6.11, 104.31 11.41, 111.5 18.05 C118.69 24.68, 125.13 33.61, 128.89 42.99 C132.65 52.37, 134.69 64.04, 134.04 74.31 C133.4 84.57, 129.75 95.67, 125 104.58 C120.24 113.5, 113.46 121.99, 105.51 127.78 C97.57 133.58, 87.09 137.48, 77.35 139.36 C67.6 141.23, 56.36 141.9, 47.05 139.05 C37.74 136.2, 28.62 129.12, 21.49 122.27 C14.36 115.43, 7.96 107.2, 4.26 97.95 C0.56 88.71, -1.28 77.08, -0.7 66.8 C-0.12 56.52, 2.91 45.36, 7.77 36.24 C12.63 27.13, 19.06 18.07, 28.49 12.11 C37.91 6.14, 57.01 2.32, 64.33 0.43 C71.64 -1.45, 72.34 -0.38, 72.37 0.8" stroke="#1e1e1e" stroke-width="1.5" fill="none" stroke-dasharray="8 9"></path></g><g transform="translate(1168.0118456716427 81.1489719263484) rotate(0 40 12.5)"><text x="40" y="0" font-family="Virgil, Segoe UI Emoji" font-size="20px" fill="#1e1e1e" text-anchor="middle" style="white-space: pre;" direction="ltr" dominant-baseline="text-before-edge">原始数据</text></g><g mask="url(#mask-nV7M6uaZuQ9a8EJGZfgS1)" stroke-linecap="round"><g transform="translate(1207.0465578161984 174.1999969482422) rotate(0 -0.13558832667763454 41.804431913215666)"><path d="M-1.11 -0.42 C-0.8 13.5, 0.58 69.91, 0.84 83.84 M0.51 -1.68 C0.76 12.4, 0.09 71.01, -0.09 85.29" stroke="#1e1e1e" stroke-width="1" fill="none"></path></g><g transform="translate(1207.0465578161984 174.1999969482422) rotate(0 -0.13558832667763454 41.804431913215666)"><path d="M-10.72 57.05 C-8.1 62.47, -7.12 69.52, -1.62 85.52 M-10.9 57.35 C-6.15 66.49, -2.25 76.09, 0.54 85.06" stroke="#1e1e1e" stroke-width="1" fill="none"></path></g><g transform="translate(1207.0465578161984 174.1999969482422) rotate(0 -0.13558832667763454 41.804431913215666)"><path d="M9.79 57.28 C8.04 62.47, 4.63 69.46, -1.62 85.52 M9.62 57.59 C7.19 66.43, 3.92 75.95, 0.54 85.06" stroke="#1e1e1e" stroke-width="1" fill="none"></path></g></g><mask id="mask-nV7M6uaZuQ9a8EJGZfgS1"><rect x="0" y="0" fill="#fff" width="1307.8465456091672" height="358.1999969482422"></rect><rect x="1167.4465517126828" y="203.6999969482422" fill="#000" width="80" height="25" opacity="1"></rect></mask><g transform="translate(1167.4465517126828 203.6999969482422) rotate(0 39.46441777683799 12.304431913215666)"><text x="40" y="0" font-family="Virgil, Segoe UI Emoji" font-size="20px" fill="#1e1e1e" text-anchor="middle" style="white-space: pre;" direction="ltr" dominant-baseline="text-before-edge">作为参数</text></g><g stroke-linecap="round" transform="translate(1120.646533402136 486.1999969482422) rotate(0 92 80.5)"><path d="M70.54 3.14 C81.83 -0.56, 96.7 -1.5, 109.1 0.46 C121.49 2.42, 134.77 8.44, 144.89 14.9 C155 21.36, 163.43 30.16, 169.8 39.23 C176.17 48.31, 181.55 58.8, 183.12 69.35 C184.7 79.9, 182.78 91.92, 179.25 102.53 C175.72 113.14, 169.96 124.68, 161.95 133.02 C153.95 141.36, 142.44 148.09, 131.21 152.59 C119.98 157.09, 106.92 159.57, 94.57 160.02 C82.23 160.48, 68.84 159.24, 57.14 155.32 C45.44 151.41, 32.91 144.56, 24.37 136.53 C15.83 128.51, 9.89 117.55, 5.89 107.16 C1.89 96.76, -0.63 84.9, 0.39 74.17 C1.41 63.45, 6.06 52.48, 12 42.8 C17.93 33.11, 24.94 23.18, 36 16.05 C47.06 8.93, 69.77 2.53, 78.36 0.05 C86.94 -2.44, 87.15 -0.17, 87.48 1.14 M76.39 0.73 C87.9 -2.28, 101.79 0.98, 113.78 3.43 C125.78 5.88, 138.56 9, 148.37 15.41 C158.18 21.82, 166.66 32.09, 172.64 41.86 C178.62 51.63, 183.23 63.29, 184.25 74.03 C185.27 84.78, 183.09 95.81, 178.75 106.32 C174.41 116.84, 167 128.82, 158.21 137.14 C149.42 145.45, 137.61 152.34, 126.01 156.21 C114.42 160.08, 100.87 160.99, 88.64 160.34 C76.4 159.69, 63.58 157.04, 52.59 152.29 C41.6 147.55, 30.65 140.08, 22.69 131.86 C14.73 123.65, 8.36 113.3, 4.83 102.99 C1.3 92.67, -0.21 80.81, 1.49 69.99 C3.18 59.17, 8.43 47.21, 15.03 38.08 C21.62 28.94, 30.95 21.47, 41.05 15.19 C51.15 8.91, 70.04 2.64, 75.64 0.42 C81.23 -1.81, 74.39 0.45, 74.62 1.81" stroke="#1e1e1e" stroke-width="1" fill="none"></path></g><g transform="translate(1162.5927095329735 541.777901062725) rotate(0 50 25)"><text x="50" y="0" font-family="Virgil, Segoe UI Emoji" font-size="20px" fill="#1e1e1e" text-anchor="middle" style="white-space: pre;" direction="ltr" dominant-baseline="text-before-edge">响应式数据</text><text x="50" y="25" font-family="Virgil, Segoe UI Emoji" font-size="20px" fill="#1e1e1e" text-anchor="middle" style="white-space: pre;" direction="ltr" dominant-baseline="text-before-edge">data</text></g><g stroke-linecap="round" transform="translate(1572.6464723669797 10) rotate(0 90 71.99999237060547)"><path d="M113.75 18 M113.75 18 C124.85 29.47, 139.4 40.68, 157.25 54 M157.25 54 C178.16 70.06, 180.41 70.14, 157.25 90 M157.25 90 C141.14 101.02, 126.93 116.69, 113.75 126 M113.75 126 C90.48 143.63, 92.25 143.14, 68.25 126 M68.25 126 C54.05 112.89, 40.55 103.08, 22.75 90 M22.75 90 C-1.71 70.36, 1.81 70.19, 22.75 54 M22.75 54 C39.24 38.56, 59.62 23.64, 68.25 18 M68.25 18 C90.37 -1.96, 90.18 0.24, 113.75 18" stroke="#1e1e1e" stroke-width="1.5" fill="none" stroke-dasharray="8 9"></path></g><g transform="translate(1622.6464723669797 56.999996185302734) rotate(0 40 25)"><text x="40" y="0" font-family="Virgil, Segoe UI Emoji" font-size="20px" fill="#1e1e1e" text-anchor="middle" style="white-space: pre;" direction="ltr" dominant-baseline="text-before-edge">回调函数</text><text x="40" y="25" font-family="Virgil, Segoe UI Emoji" font-size="20px" fill="#1e1e1e" text-anchor="middle" style="white-space: pre;" direction="ltr" dominant-baseline="text-before-edge">cb</text></g><g mask="url(#mask-_ZaaHpaAu1QWXIhHyrlnW)" stroke-linecap="round"><g transform="translate(1667.6739779119644 151.85366936261727) rotate(0 1.3833503834116527 46.16847870010437)"><path d="M0.9 -0.04 C1.35 15.37, 2.48 76.8, 2.85 92.06 M-0.08 -1.11 C0.24 14.52, 1.68 77.87, 2.15 93.45" stroke="#1e1e1e" stroke-width="1" fill="none"></path></g><g transform="translate(1667.6739779119644 151.85366936261727) rotate(0 1.3833503834116527 46.16847870010437)"><path d="M-8.91 66.32 C-5.96 75.41, -3.44 82.34, 2.07 92.79 M-9.59 65.59 C-6.19 74.05, -1.86 80.46, 2.01 93.48" stroke="#1e1e1e" stroke-width="1" fill="none"></path></g><g transform="translate(1667.6739779119644 151.85366936261727) rotate(0 1.3833503834116527 46.16847870010437)"><path d="M11.61 65.8 C8.12 75.2, 4.2 82.3, 2.07 92.79 M10.92 65.06 C8.47 73.77, 6.93 80.33, 2.01 93.48" stroke="#1e1e1e" stroke-width="1" fill="none"></path></g></g><mask id="mask-_ZaaHpaAu1QWXIhHyrlnW"><rect x="0" y="0" fill="#fff" width="1770.0441327968047" height="344.1955528279953"></rect><rect x="1628.8590553543845" y="185.52461109530628" fill="#000" width="80" height="25" opacity="1"></rect></mask><g transform="translate(1628.8590553543845 185.52461109530628) rotate(0 40.1982729409915 12.497536967415357)"><text x="40" y="0" font-family="Virgil, Segoe UI Emoji" font-size="20px" fill="#1e1e1e" text-anchor="middle" style="white-space: pre;" direction="ltr" dominant-baseline="text-before-edge">作为参数</text></g><g stroke-linecap="round"><g transform="translate(1676.9751986288384 1269.599868774414) rotate(0 -13.901415343088388 54.50703448546119)"><path d="M0.27 -0.46 C-4.61 17.94, -23.62 92.09, -28.07 110.77 M-1.05 -1.75 C-5.64 16.25, -21.45 90.23, -25.73 108.84" stroke="#1e1e1e" stroke-width="1" fill="none"></path></g><g transform="translate(1676.9751986288384 1269.599868774414) rotate(0 -13.901415343088388 54.50703448546119)"><path d="M-30.42 77.93 C-27.39 92.49, -24.45 102.67, -27.15 108.6 M-30.36 79.19 C-27.74 89.43, -27.74 99.84, -25.09 109.02" stroke="#1e1e1e" stroke-width="1" fill="none"></path></g><g transform="translate(1676.9751986288384 1269.599868774414) rotate(0 -13.901415343088388 54.50703448546119)"><path d="M-10.39 82.37 C-15.36 95.2, -20.4 103.61, -27.15 108.6 M-10.32 83.62 C-14.47 92.48, -21.23 101.4, -25.09 109.02" stroke="#1e1e1e" stroke-width="1" fill="none"></path></g></g><mask></mask><g stroke-linecap="round" transform="translate(1492.6464723669797 1393.5999908447266) rotate(0 160.39996337890625 58.399993896484375)"><path d="M29.2 0 M29.2 0 C132.15 -0.7, 236.15 1.11, 291.6 0 M29.2 0 C97.09 -0.85, 165.49 -0.98, 291.6 0 M291.6 0 C311.18 1.08, 322.68 9.7, 320.8 29.2 M291.6 0 C310.16 -1.45, 322.11 8.08, 320.8 29.2 M320.8 29.2 C318.9 51.24, 319 75.54, 320.8 87.6 M320.8 29.2 C321.15 51.51, 319.75 72.67, 320.8 87.6 M320.8 87.6 C322.62 106.42, 312.21 117.56, 291.6 116.8 M320.8 87.6 C321.47 109.11, 310.06 115.46, 291.6 116.8 M291.6 116.8 C187.47 119.97, 82.09 119.17, 29.2 116.8 M291.6 116.8 C195.38 117.2, 99.1 116.66, 29.2 116.8 M29.2 116.8 C11.5 115.24, 0.13 107.01, 0 87.6 M29.2 116.8 C11.13 115.79, -0.37 108.18, 0 87.6 M0 87.6 C-1.37 69.8, -0.77 57.72, 0 29.2 M0 87.6 C-1.28 75.56, 0.26 64.02, 0 29.2 M0 29.2 C0.55 10.38, 10.76 -0.31, 29.2 0 M0 29.2 C1.69 11.16, 9.6 -2.1, 29.2 0" stroke="#1e1e1e" stroke-width="1" fill="none"></path></g><g transform="translate(1580.5564531409054 1439.499984741211) rotate(0 72.48998260498047 12.5)"><text x="72.48998260498047" y="0" font-family="Virgil, Segoe UI Emoji" font-size="20px" fill="#1e1e1e" text-anchor="middle" style="white-space: pre;" direction="ltr" dominant-baseline="text-before-edge">触发[[ GET ]]</text></g><g stroke-linecap="round"><g transform="translate(1670.917925193233 1522.3999786376953) rotate(0 -7.224580148311702 53.83535247780401)"><path d="M-0.79 -1.04 C-3.25 17.26, -12.23 90.38, -14.47 108.71 M0.99 1.03 C-1.65 19.07, -12.79 89.29, -15.44 106.96" stroke="#1e1e1e" stroke-width="1" fill="none"></path></g><g transform="translate(1670.917925193233 1522.3999786376953) rotate(0 -7.224580148311702 53.83535247780401)"><path d="M-23.01 77.48 C-18.46 87.44, -16.24 95.86, -15.22 105.49 M-21.88 78.27 C-19.25 87.86, -17.54 96.55, -14.54 106.19" stroke="#1e1e1e" stroke-width="1" fill="none"></path></g><g transform="translate(1670.917925193233 1522.3999786376953) rotate(0 -7.224580148311702 53.83535247780401)"><path d="M-2.73 80.61 C-4.71 89.42, -9.03 96.84, -15.22 105.49 M-1.6 81.41 C-5.44 90.11, -10.22 97.8, -14.54 106.19" stroke="#1e1e1e" stroke-width="1" fill="none"></path></g></g><mask></mask><g stroke-linecap="round" transform="translate(1536.6464723669797 1642.4000701904297) rotate(0 134.40008544921875 67.60000610351562)"><path d="M32 0 M32 0 C91.89 1.09, 151.08 0.87, 236.8 0 M32 0 C95.65 1.68, 160.57 1.33, 236.8 0 M236.8 0 C258.96 -1.88, 268.26 11.39, 268.8 32 M236.8 0 C256.37 1.66, 266.87 10.58, 268.8 32 M268.8 32 C270.46 48.93, 267.47 65.87, 268.8 103.2 M268.8 32 C267.78 47.44, 268.71 64.55, 268.8 103.2 M268.8 103.2 C270.04 126.5, 256.41 134.29, 236.8 135.2 M268.8 103.2 C270.77 125.94, 256.67 133.46, 236.8 135.2 M236.8 135.2 C167.05 135.89, 96.14 137.82, 32 135.2 M236.8 135.2 C175.82 135.42, 115.62 136.76, 32 135.2 M32 135.2 C8.82 135.36, 0.56 123.31, 0 103.2 M32 135.2 C12.63 134.47, 1.35 124.37, 0 103.2 M0 103.2 C-1.37 88.04, 0.79 72.43, 0 32 M0 103.2 C0.58 82.31, -0.54 59.17, 0 32 M0 32 C-1.69 11.13, 12.07 0.65, 32 0 M0 32 C-1.77 8.69, 12.01 -1.8, 32 0" stroke="#1e1e1e" stroke-width="1" fill="none"></path></g><g transform="translate(1631.9265703284054 1700.0000762939453) rotate(0 39.11998748779297 10)"><text x="39.11998748779297" y="0" font-family="Virgil, Segoe UI Emoji" font-size="16px" fill="#1e1e1e" text-anchor="middle" style="white-space: pre;" direction="ltr" dominant-baseline="text-before-edge">执行Track</text></g><g stroke-linecap="round" transform="translate(802.2462953650265 961.4000396728516) rotate(0 119.5 46.5)"><path d="M126.23 0.96 C140.79 0.58, 157.7 2.68, 171.44 4.97 C185.18 7.25, 198.62 10.49, 208.67 14.67 C218.71 18.86, 226.55 24.26, 231.72 30.07 C236.88 35.88, 240.28 43.37, 239.67 49.54 C239.07 55.72, 234.58 61.91, 228.06 67.11 C221.55 72.31, 212.02 76.97, 200.59 80.74 C189.16 84.51, 173.84 87.7, 159.47 89.71 C145.11 91.72, 129.61 92.84, 114.4 92.79 C99.18 92.74, 82.03 91.94, 68.18 89.41 C54.32 86.88, 41.41 82.03, 31.28 77.6 C21.14 73.17, 12.58 68.49, 7.37 62.82 C2.16 57.14, -0.54 49.71, 0.04 43.57 C0.62 37.43, 4.39 31.37, 10.84 26 C17.29 20.62, 27.39 15.26, 38.75 11.33 C50.1 7.4, 62.86 4.36, 78.97 2.41 C95.07 0.46, 124.26 -0.18, 135.38 -0.37 C146.51 -0.56, 146.05 0.36, 145.73 1.28 M157.81 3.61 C172.17 4.7, 187.29 6.85, 198.57 10.75 C209.86 14.64, 218.62 21.4, 225.52 26.95 C232.43 32.51, 238.82 38.24, 240.02 44.1 C241.22 49.96, 237.85 56.66, 232.73 62.12 C227.62 67.57, 219.42 72.64, 209.31 76.83 C199.19 81.02, 185.8 84.67, 172.04 87.24 C158.27 89.82, 141.79 91.5, 126.72 92.28 C111.65 93.07, 95.77 93.87, 81.63 91.97 C67.48 90.07, 53.61 85.05, 41.84 80.9 C30.08 76.75, 17.86 72.2, 11.04 67.07 C4.21 61.94, 1.68 56.15, 0.89 50.1 C0.1 44.04, 1.37 36.43, 6.3 30.72 C11.23 25.01, 20.37 20.29, 30.48 15.82 C40.58 11.35, 53.11 6.69, 66.93 3.9 C80.75 1.11, 98.3 -0.74, 113.39 -0.93 C128.48 -1.13, 150.37 1.8, 157.49 2.72 C164.62 3.63, 156.67 4.08, 156.15 4.56" stroke="#1e1e1e" stroke-width="1" fill="none"></path></g><g transform="translate(858.9170942173357 995.519574347677) rotate(0 62.82994079589844 12.5)"><text x="62.82994079589844" y="0" font-family="Virgil, Segoe UI Emoji" font-size="20px" fill="#1e1e1e" text-anchor="middle" style="white-space: pre;" direction="ltr" dominant-baseline="text-before-edge">activeEffect</text></g><g mask="url(#mask-qJFQKNvrf1otvfNXTsaxa)" stroke-linecap="round"><g transform="translate(1519.0465578161984 780.3385675026232) rotate(0 -235.7283048433924 119.53877165273627)"><path d="M0.39 -0.13 C-78.24 39.92, -392.55 199.15, -471.22 239.4 M-0.87 -1.25 C-79.65 38.99, -393.27 200.21, -471.85 240.33" stroke="#1e1e1e" stroke-width="1" fill="none"></path></g><g transform="translate(1519.0465578161984 780.3385675026232) rotate(0 -235.7283048433924 119.53877165273627)"><path d="M-451.66 219.36 C-460.64 226.37, -464.45 232.92, -471.96 238.44 M-451.15 217.55 C-456.56 225.67, -464.17 232.25, -471.04 239.45" stroke="#1e1e1e" stroke-width="1" fill="none"></path></g><g transform="translate(1519.0465578161984 780.3385675026232) rotate(0 -235.7283048433924 119.53877165273627)"><path d="M-442.3 237.62 C-454.4 238.31, -461.46 238.52, -471.96 238.44 M-441.79 235.81 C-449.99 238.5, -460.37 239.66, -471.04 239.45" stroke="#1e1e1e" stroke-width="1" fill="none"></path></g></g><mask id="mask-qJFQKNvrf1otvfNXTsaxa"><rect x="0" y="0" fill="#fff" width="2090.881386887497" height="1120.9043536137704"></rect><rect x="1180.2992024846508" y="863.1214605581968" fill="#000" width="205.65988159179688" height="75" opacity="1"></rect></mask><g transform="translate(1180.2992024846508 863.1214605581968) rotate(0 103.01905048815533 36.75587859716268)"><text x="102.82994079589844" y="0" font-family="Virgil, Segoe UI Emoji" font-size="20px" fill="#1e1e1e" text-anchor="middle" style="white-space: pre;" direction="ltr" dominant-baseline="text-before-edge"></text><text x="102.82994079589844" y="25" font-family="Virgil, Segoe UI Emoji" font-size="20px" fill="#1e1e1e" text-anchor="middle" style="white-space: pre;" direction="ltr" dominant-baseline="text-before-edge">把activeEffect设置为</text><text x="102.82994079589844" y="50" font-family="Virgil, Segoe UI Emoji" font-size="20px" fill="#1e1e1e" text-anchor="middle" style="white-space: pre;" direction="ltr" dominant-baseline="text-before-edge">effectFn</text></g><g stroke-linecap="round" transform="translate(1554.2465700232297 463.8000030517578) rotate(0 122.4000244140625 48)"><path d="M24 0 M24 0 C97.26 1.37, 165.61 1.54, 220.8 0 M24 0 C82.75 -0.01, 142.74 -0.01, 220.8 0 M220.8 0 C234.92 -1.92, 244.87 7.8, 244.8 24 M220.8 0 C237.79 -1.25, 245.68 6.25, 244.8 24 M244.8 24 C244.26 40.89, 243.94 58.34, 244.8 72 M244.8 24 C244.6 41.46, 244.3 58.72, 244.8 72 M244.8 72 C244.06 89.63, 236.99 95.59, 220.8 96 M244.8 72 C245.37 88.44, 235.07 95.17, 220.8 96 M220.8 96 C153.54 98.72, 84.18 98.33, 24 96 M220.8 96 C148.8 96.31, 78.09 97.81, 24 96 M24 96 C8.44 94.19, -0.76 86.46, 0 72 M24 96 C6.53 97.9, -1.26 86.33, 0 72 M0 72 C-1.49 53.5, 0.13 38.31, 0 24 M0 72 C0.96 62.26, 0.07 51.25, 0 24 M0 24 C-0.35 6.65, 8.37 0.59, 24 0 M0 24 C-1.84 6.43, 9.33 0.44, 24 0" stroke="#1e1e1e" stroke-width="1" fill="none"></path></g><g transform="translate(1614.9066347204953 499.3000030517578) rotate(0 61.739959716796875 12.5)"><text x="61.739959716796875" y="0" font-family="Virgil, Segoe UI Emoji" font-size="20px" fill="#1e1e1e" text-anchor="middle" style="white-space: pre;" direction="ltr" dominant-baseline="text-before-edge">effectFn实例</text></g><g mask="url(#mask-MYdkNjuA6uWzJnPcrKXXc)" stroke-linecap="round"><g transform="translate(1663.8465456091672 360.59999084472656) rotate(0 -0.5479344990103527 45.385850931825104)"><path d="M0.84 0.85 C0.55 15.79, -1.68 75.55, -1.94 90.52 M-0.18 0.25 C-0.1 14.79, 0.39 74.11, 0.18 88.89" stroke="#1e1e1e" stroke-width="1" fill="none"></path></g><g transform="translate(1663.8465456091672 360.59999084472656) rotate(0 -0.5479344990103527 45.385850931825104)"><path d="M-8.63 58.79 C-5.4 68.74, -2.22 74.94, 0.77 88.82 M-9.86 61.25 C-6.63 68.49, -4.4 76.1, 0.31 89.79" stroke="#1e1e1e" stroke-width="1" fill="none"></path></g><g transform="translate(1663.8465456091672 360.59999084472656) rotate(0 -0.5479344990103527 45.385850931825104)"><path d="M11.89 58.82 C9.3 68.9, 6.67 75.1, 0.77 88.82 M10.66 61.28 C8.03 68.48, 4.42 76.08, 0.31 89.79" stroke="#1e1e1e" stroke-width="1" fill="none"></path></g></g><mask id="mask-MYdkNjuA6uWzJnPcrKXXc"><rect x="0" y="0" fill="#fff" width="1764.6464723669797" height="550.2000579833984"></rect><rect x="1633.3465913855343" y="392.9000244140625" fill="#000" width="60.199981689453125" height="25" opacity="1"></rect></mask><g transform="translate(1633.3465913855343 392.9000244140625) rotate(0 29.95201972462246 13.085817362489166)"><text x="30.099990844726562" y="0" font-family="Virgil, Segoe UI Emoji" font-size="20px" fill="#1e1e1e" text-anchor="middle" style="white-space: pre;" direction="ltr" dominant-baseline="text-before-edge">包装cb</text></g><g mask="url(#mask-cEXzVnFjYr_W2EVffGL_K)" stroke-linecap="round"><g transform="translate(1535.8105282330712 859.9011274091189) rotate(0 -134.94975555748454 118.17016696040804)"><path d="M-1.02 0.8 C-45.74 40.18, -224.8 196.93, -269.31 236.16 M0.64 0.18 C-44.2 39.18, -225.68 194.61, -270.54 234.18" stroke="#1971c2" stroke-width="1" fill="none"></path></g><g transform="translate(1535.8105282330712 859.9011274091189) rotate(0 -134.94975555748454 118.17016696040804)"><path d="M-254.63 207.05 C-258.7 214.65, -261.86 217.72, -270.95 234.36 M-255.87 207.02 C-259.9 217, -266.56 224.92, -269.85 234.14" stroke="#1971c2" stroke-width="1" fill="none"></path></g><g transform="translate(1535.8105282330712 859.9011274091189) rotate(0 -134.94975555748454 118.17016696040804)"><path d="M-241.18 222.55 C-248.17 226.67, -254.25 226.36, -270.95 234.36 M-242.42 222.52 C-251.14 227.2, -262.39 229.83, -269.85 234.14" stroke="#1971c2" stroke-width="1" fill="none"></path></g></g><mask id="mask-cEXzVnFjYr_W2EVffGL_K"><rect x="0" y="0" fill="#fff" width="1904.574498649944" height="1195.7873656348788"></rect><rect x="1380.4485701852796" y="965.3442465219988" fill="#000" width="41.95994567871094" height="25" opacity="1"></rect></mask><g transform="translate(1380.4485701852793 965.3442465219989) rotate(0 20.412202490307436 12.727047847528013)"><text x="20.97997283935547" y="0" font-family="Virgil, Segoe UI Emoji" font-size="20px" fill="#1971c2" text-anchor="middle" style="white-space: pre;" direction="ltr" dominant-baseline="text-before-edge">push</text></g><g stroke-linecap="round" transform="translate(1071.8465456091672 1068.800064086914) rotate(0 86.800048828125 131.20001220703125)"><path d="M32 0 M32 0 C54.96 -0.61, 81.22 -1.45, 141.6 0 M32 0 C65.25 -1.15, 96.76 -0.62, 141.6 0 M141.6 0 C161.8 0.68, 175.11 10.69, 173.6 32 M141.6 0 C161.87 0.55, 175.27 12.2, 173.6 32 M173.6 32 C171.83 74.79, 171.17 117.48, 173.6 230.4 M173.6 32 C173.25 83.68, 174.69 133.54, 173.6 230.4 M173.6 230.4 C174.06 251.05, 163.84 260.81, 141.6 262.4 M173.6 230.4 C172.93 251.34, 163.22 262.7, 141.6 262.4 M141.6 262.4 C111.28 263, 81.36 263.16, 32 262.4 M141.6 262.4 C99.44 262.99, 55.17 261.57, 32 262.4 M32 262.4 C12.49 263.99, -1.03 253.72, 0 230.4 M32 262.4 C8.38 263.53, -1.26 253.28, 0 230.4 M0 230.4 C0.99 176.77, 0.98 123.85, 0 32 M0 230.4 C-0.72 158.47, -0.7 87.54, 0 32 M0 32 C-1.79 9.87, 11.58 0.52, 32 0 M0 32 C-1.73 9.28, 12.88 0.11, 32 0" stroke="#1971c2" stroke-width="1" fill="none"></path></g><g stroke-linecap="round" transform="translate(1082.2465700232297 1280.8001251220703) rotate(0 80.4000244140625 20.79998779296875)"><path d="M10.4 0 M10.4 0 C55.56 -0.87, 97.46 1.66, 150.4 0 M10.4 0 C49.87 -1.53, 89.35 -0.4, 150.4 0 M150.4 0 C155.93 -1.1, 162.63 5.06, 160.8 10.4 M150.4 0 C156.14 2.29, 158.51 4.59, 160.8 10.4 M160.8 10.4 C159.89 14.07, 160.89 19.86, 160.8 31.2 M160.8 10.4 C161.42 16.48, 161.38 22.2, 160.8 31.2 M160.8 31.2 C162.15 37.9, 155.55 40.81, 150.4 41.6 M160.8 31.2 C161.85 38.73, 155.61 40.21, 150.4 41.6 M150.4 41.6 C93.58 41.81, 39.45 40.39, 10.4 41.6 M150.4 41.6 C121.84 41.58, 91.43 40.74, 10.4 41.6 M10.4 41.6 C4.35 39.71, 0.77 39.43, 0 31.2 M10.4 41.6 C1.96 40.85, 0.08 37.27, 0 31.2 M0 31.2 C2.15 24.33, -0.17 19.09, 0 10.4 M0 31.2 C-0.2 22.92, -0.67 15.69, 0 10.4 M0 10.4 C-1.99 2.14, 4.97 0.49, 10.4 0 M0 10.4 C2.2 2.92, 1.62 -1.87, 10.4 0" stroke="#1971c2" stroke-width="1" fill="none"></path></g><g transform="translate(1154.4266008459836 1289.100112915039) rotate(0 8.219993591308594 12.5)"><text x="8.219993591308594" y="0" font-family="Virgil, Segoe UI Emoji" font-size="20px" fill="#1971c2" text-anchor="middle" style="white-space: pre;" direction="ltr" dominant-baseline="text-before-edge">...</text></g><g stroke-linecap="round" transform="translate(1079.0466188513547 1235.600112915039) rotate(0 80.4000244140625 20.79998779296875)"><path d="M10.4 0 M10.4 0 C66.78 1.57, 119.8 0.25, 150.4 0 M10.4 0 C46.61 0.22, 82.78 1.96, 150.4 0 M150.4 0 C157.82 1.92, 160.32 1.86, 160.8 10.4 M150.4 0 C155.47 2.08, 159.34 1.88, 160.8 10.4 M160.8 10.4 C161.84 13.98, 160.43 19.2, 160.8 31.2 M160.8 10.4 C160.21 16.18, 161.57 21.5, 160.8 31.2 M160.8 31.2 C161.75 36.93, 157.17 42.13, 150.4 41.6 M160.8 31.2 C158.66 39.5, 159.48 39.43, 150.4 41.6 M150.4 41.6 C118.1 41.85, 89.27 44.14, 10.4 41.6 M150.4 41.6 C100.46 40.04, 47.77 41.61, 10.4 41.6 M10.4 41.6 C3.96 40.69, 0.88 40.04, 0 31.2 M10.4 41.6 C4.01 43.73, -0.78 38.66, 0 31.2 M0 31.2 C-0.05 22.08, 1.26 14.12, 0 10.4 M0 31.2 C0.08 24.91, -0.72 19.65, 0 10.4 M0 10.4 C-1.41 2.48, 2.59 1.23, 10.4 0 M0 10.4 C-0.69 5.11, 4.86 0.73, 10.4 0" stroke="#1971c2" stroke-width="1" fill="none"></path></g><g transform="translate(1148.486651810339 1243.9001007080078) rotate(0 10.959991455078125 12.5)"><text x="10.959991455078125" y="0" font-family="Virgil, Segoe UI Emoji" font-size="20px" fill="#1971c2" text-anchor="middle" style="white-space: pre;" direction="ltr" dominant-baseline="text-before-edge">....</text></g><g stroke-linecap="round" transform="translate(1078.8465456091672 1190.4001007080078) rotate(0 80.4000244140625 20.79998779296875)"><path d="M2.77 2.41 C2.77 2.41, 2.77 2.41, 2.77 2.41 M2.77 2.41 C2.77 2.41, 2.77 2.41, 2.77 2.41 M0.54 11.07 C1.51 9.22, 6.67 4.19, 10.38 -0.25 M0.54 11.07 C2.02 8.17, 4.92 6.54, 10.38 -0.25 M0.93 16.71 C7.28 9.85, 8.47 7.61, 13.4 2.37 M0.93 16.71 C5.95 12.23, 9.97 7.02, 13.4 2.37 M0.67 23.11 C6.39 16.46, 11 11.2, 18.39 2.73 M0.67 23.11 C5.35 17.75, 9.88 11.53, 18.39 2.73 M1.07 28.75 C8.57 20.66, 17.05 11.43, 24.03 2.34 M1.07 28.75 C8.79 19.75, 18.51 10.01, 24.03 2.34 M1.46 34.4 C8.54 24.6, 16.99 16.63, 29.02 2.7 M1.46 34.4 C9.48 24.9, 18.08 15.77, 29.02 2.7 M3.17 38.53 C9.78 31.1, 16.34 23.03, 34.66 2.3 M3.17 38.53 C13.35 27.91, 22.32 16.05, 34.66 2.3 M6.19 41.15 C17.47 25.72, 29.39 13.52, 39.65 2.66 M6.19 41.15 C19.07 26.47, 31.51 10.75, 39.65 2.66 M11.17 41.51 C21.9 29.18, 33.75 13.21, 44.63 3.02 M11.17 41.51 C22.78 27.84, 35.74 12.11, 44.63 3.02 M16.82 41.12 C27.74 27, 41.41 12.5, 50.28 2.63 M16.82 41.12 C29.24 27.13, 40.88 12.25, 50.28 2.63 M21.8 41.48 C31.16 30.48, 39.47 20.36, 55.26 2.99 M21.8 41.48 C31.99 30.51, 41.62 17.75, 55.26 2.99 M27.45 41.08 C36.64 33.13, 43.35 25.69, 60.91 2.59 M27.45 41.08 C36.07 30.43, 46.33 18.98, 60.91 2.59 M32.43 41.44 C44.03 31.1, 53.58 17.74, 65.89 2.95 M32.43 41.44 C44.28 27.23, 56.11 13.81, 65.89 2.95 M38.08 41.05 C43.3 32.48, 51.66 23.78, 71.54 2.56 M38.08 41.05 C47.48 31.1, 56.66 19.56, 71.54 2.56 M43.06 41.41 C50.82 32.58, 60.96 22.4, 76.52 2.92 M43.06 41.41 C53.1 29.86, 63.02 18.37, 76.52 2.92 M48.05 41.77 C56.52 30.95, 65.7 23.21, 82.17 2.53 M48.05 41.77 C57.73 29.91, 69.76 16.91, 82.17 2.53 M53.69 41.38 C64.38 29.04, 75.24 19.47, 87.15 2.89 M53.69 41.38 C61.49 32.79, 69.28 23.18, 87.15 2.89 M58.68 41.74 C66.15 33.09, 72.58 24.42, 92.8 2.49 M58.68 41.74 C69.42 28.45, 81 16, 92.8 2.49 M64.32 41.34 C78.27 27.8, 89.56 13.72, 97.78 2.85 M64.32 41.34 C71.25 33.21, 78.11 25.43, 97.78 2.85 M69.31 41.7 C75.18 34.23, 83.41 27.2, 102.77 3.21 M69.31 41.7 C76.26 33.97, 82.5 25.76, 102.77 3.21 M74.95 41.31 C84.56 31.16, 93.71 23.49, 108.41 2.82 M74.95 41.31 C86.6 28.54, 95.98 17.34, 108.41 2.82 M79.94 41.67 C87.03 30.37, 97.12 24.55, 113.4 3.18 M79.94 41.67 C93.38 26.41, 106.12 10.73, 113.4 3.18 M85.58 41.27 C95.57 28.49, 107.25 17.87, 119.04 2.78 M85.58 41.27 C94.37 31.76, 102.1 20.68, 119.04 2.78 M90.57 41.63 C101.59 30.58, 108.5 19.69, 124.03 3.14 M90.57 41.63 C102.35 28.11, 113.23 15.84, 124.03 3.14 M96.21 41.24 C107.91 26.23, 122.86 12.96, 129.67 2.75 M96.21 41.24 C108.65 25.63, 121.9 10.76, 129.67 2.75 M101.2 41.6 C108.86 32.85, 113.76 25.39, 134.66 3.11 M101.2 41.6 C109.28 33.42, 116.6 23.53, 134.66 3.11 M106.19 41.96 C119.04 28.42, 134.43 13.24, 140.3 2.71 M106.19 41.96 C113.96 33.11, 122.07 24.32, 140.3 2.71 M111.83 41.56 C121.87 26.98, 137.34 15.55, 145.29 3.07 M111.83 41.56 C120.45 31.19, 130.27 19.48, 145.29 3.07 M116.82 41.92 C129.39 25.27, 142.66 13.45, 150.28 3.43 M116.82 41.92 C129.15 27.98, 141.38 13.91, 150.28 3.43 M122.46 41.53 C133.3 28.03, 146.61 12.95, 156.58 2.28 M122.46 41.53 C135.51 26.75, 149.14 9.79, 156.58 2.28 M127.45 41.89 C139.53 28.86, 147 19.61, 159.6 4.91 M127.45 41.89 C139.68 27.16, 153.65 11.94, 159.6 4.91 M133.09 41.49 C141.12 31.74, 151.94 17.18, 162.61 7.53 M133.09 41.49 C143.04 30.19, 151.25 20.31, 162.61 7.53 M138.08 41.85 C142.61 35.98, 146.91 30.96, 162.35 13.93 M138.08 41.85 C145.45 32.78, 153.82 23.13, 162.35 13.93 M143.72 41.46 C147.44 34.41, 154.29 26.58, 162.09 20.33 M143.72 41.46 C148.41 34.87, 153.51 29.14, 162.09 20.33 M148.71 41.82 C152.12 37.59, 154.7 31.58, 162.49 25.97 M148.71 41.82 C152.82 36.48, 159.14 30.87, 162.49 25.97 M152.38 43.69 C155.29 39.13, 159.62 36.63, 162.22 32.37 M152.38 43.69 C156.41 39.49, 160.04 35.05, 162.22 32.37" stroke="#b2f2bb" stroke-width="0.5" fill="none"></path><path d="M10.4 0 M10.4 0 C57.04 0.26, 104.43 -1.09, 150.4 0 M10.4 0 C41.41 0.86, 72.01 0.06, 150.4 0 M150.4 0 C156.61 -0.02, 160.29 4.16, 160.8 10.4 M150.4 0 C159.57 0.51, 158.89 2.17, 160.8 10.4 M160.8 10.4 C159.29 14.84, 159.24 20.93, 160.8 31.2 M160.8 10.4 C161.08 14.94, 160.64 21.08, 160.8 31.2 M160.8 31.2 C161.62 39.43, 157.02 41.81, 150.4 41.6 M160.8 31.2 C158.64 40.13, 157.63 39.7, 150.4 41.6 M150.4 41.6 C119.13 40.51, 90.79 39.91, 10.4 41.6 M150.4 41.6 C110.57 43.29, 71.64 43.12, 10.4 41.6 M10.4 41.6 C3.47 42.72, -0.11 37.34, 0 31.2 M10.4 41.6 C1.24 42.96, -1.85 35.9, 0 31.2 M0 31.2 C1.36 23.32, 1.91 18.1, 0 10.4 M0 31.2 C-0.25 27.72, -0.5 22.72, 0 10.4 M0 10.4 C-1.85 1.5, 4.43 1.76, 10.4 0 M0 10.4 C0.7 4.52, 1.19 0.83, 10.4 0" stroke="#1971c2" stroke-width="1" fill="none"></path></g><g transform="translate(1117.5066103064328 1198.7000885009766) rotate(0 41.739959716796875 12.5)"><text x="41.739959716796875" y="0" font-family="Virgil, Segoe UI Emoji" font-size="20px" fill="#1971c2" text-anchor="middle" style="white-space: pre;" direction="ltr" dominant-baseline="text-before-edge">effectFn</text></g><g transform="translate(1263.8465456091672 1151.400131225586) rotate(0 105.39197540283203 20)"><text x="0" y="0" font-family="Virgil, Segoe UI Emoji" font-size="16px" fill="#1971c2" text-anchor="start" style="white-space: pre;" direction="ltr" dominant-baseline="text-before-edge">解决effect嵌套时</text><text x="0" y="20" font-family="Virgil, Segoe UI Emoji" font-size="16px" fill="#1971c2" text-anchor="start" style="white-space: pre;" direction="ltr" dominant-baseline="text-before-edge">无法收集正确的effectFn实例</text></g><g mask="url(#mask-9EJCk03kUviu2OlseAfsW)" stroke-linecap="round"><g transform="translate(1669.4465211951047 1795.5999908447266) rotate(0 -151.9963471617922 100.99692583288993)"><path d="M-0.6 0.34 C-51.57 33.91, -253.96 167.63, -304.77 201.2 M1.29 -0.53 C-49.86 33.23, -254.05 168.58, -305.28 202.52" stroke="#1e1e1e" stroke-width="1" fill="none"></path></g><g transform="translate(1669.4465211951047 1795.5999908447266) rotate(0 -151.9963471617922 100.99692583288993)"><path d="M-286.89 179.78 C-295.08 187.94, -301.11 197.79, -306.86 201.43 M-287.63 179.16 C-294.73 188.74, -301.74 197.9, -306.04 202.45" stroke="#1e1e1e" stroke-width="1" fill="none"></path></g><g transform="translate(1669.4465211951047 1795.5999908447266) rotate(0 -151.9963471617922 100.99692583288993)"><path d="M-275.55 196.89 C-288.1 198.36, -298.53 201.59, -306.86 201.43 M-276.29 196.27 C-287.97 199.01, -299.48 201.36, -306.04 202.45" stroke="#1e1e1e" stroke-width="1" fill="none"></path></g></g><mask id="mask-9EJCk03kUviu2OlseAfsW"><rect x="0" y="0" fill="#fff" width="2075.046496781042" height="2097.2000274658203"></rect><rect x="1428.646533402136" y="1856.4000091552734" fill="#000" width="176" height="80" opacity="1"></rect></mask><g transform="translate(1428.646533402136 1856.4000091552734) rotate(0 88.80364063117656 40.196907522343054)"><text x="88" y="0" font-family="Virgil, Segoe UI Emoji" font-size="16px" fill="#1e1e1e" text-anchor="middle" style="white-space: pre;" direction="ltr" dominant-baseline="text-before-edge">在BUCKET中把 </text><text x="88" y="20" font-family="Virgil, Segoe UI Emoji" font-size="16px" fill="#1e1e1e" text-anchor="middle" style="white-space: pre;" direction="ltr" dominant-baseline="text-before-edge">响应式数据、数据的键、</text><text x="88" y="40" font-family="Virgil, Segoe UI Emoji" font-size="16px" fill="#1e1e1e" text-anchor="middle" style="white-space: pre;" direction="ltr" dominant-baseline="text-before-edge">和effectFn</text><text x="88" y="60" font-family="Virgil, Segoe UI Emoji" font-size="16px" fill="#1e1e1e" text-anchor="middle" style="white-space: pre;" direction="ltr" dominant-baseline="text-before-edge">三者相关联</text></g><g stroke-linecap="round" transform="translate(833.4465822302609 1804.8000030517578) rotate(0 254.39999389648438 174.80001831054688)"><path d="M32 0 M32 0 C206.58 -0.5, 381.27 -0.3, 476.8 0 M32 0 C178.95 -0.49, 325.84 0.16, 476.8 0 M476.8 0 C498.03 0.32, 507.69 12.65, 508.8 32 M476.8 0 C499.53 -2.17, 508.65 9.94, 508.8 32 M508.8 32 C511.19 105.24, 511.11 179.28, 508.8 317.6 M508.8 32 C507.75 125.51, 507.99 218.09, 508.8 317.6 M508.8 317.6 C508.59 340.12, 499.05 349.17, 476.8 349.6 M508.8 317.6 C506.65 339.7, 496.56 347.59, 476.8 349.6 M476.8 349.6 C367.58 349.91, 259.54 349.93, 32 349.6 M476.8 349.6 C359.76 350.24, 242.28 350.6, 32 349.6 M32 349.6 C12.41 350.56, 1.51 339.21, 0 317.6 M32 349.6 C9.25 350.76, -2.03 340.91, 0 317.6 M0 317.6 C-1.98 205.98, -1.73 93.39, 0 32 M0 317.6 C1.59 248.27, 1.34 179.16, 0 32 M0 32 C1.46 9.66, 10.34 1.18, 32 0 M0 32 C-0.15 8.94, 12.48 2.27, 32 0" stroke="#1e1e1e" stroke-width="1" fill="none"></path></g><g stroke-linecap="round" transform="translate(842.2466005408078 1858.3999786376953) rotate(0 244.5 96.10000610351562)"><path d="M32 0 M32 0 C153.72 0.32, 273.72 -0.1, 457 0 M32 0 C159.65 -1, 286.19 -0.81, 457 0 M457 0 C476.57 1.72, 490.8 12.25, 489 32 M457 0 C476.47 -0.4, 488.65 10.65, 489 32 M489 32 C490.16 58.06, 487.69 83.77, 489 160.2 M489 32 C489.77 67.61, 489.87 101.29, 489 160.2 M489 160.2 C490.57 183.5, 477.78 192.52, 457 192.2 M489 160.2 C487.95 182.88, 476.99 190.17, 457 192.2 M457 192.2 C294.7 192.89, 132 192, 32 192.2 M457 192.2 C360.42 190.52, 263.58 190.34, 32 192.2 M32 192.2 C11.02 193.99, -1.05 179.79, 0 160.2 M32 192.2 C10.11 190.09, 0.41 182.19, 0 160.2 M0 160.2 C-0.58 134.79, -1.03 107.66, 0 32 M0 160.2 C-1.35 127.19, -0.47 94.51, 0 32 M0 32 C-0.02 11.23, 12.63 -1.41, 32 0 M0 32 C-2.28 10.88, 12.62 -0.63, 32 0" stroke="#1e1e1e" stroke-width="1" fill="none"></path></g><g stroke-linecap="round" transform="translate(847.8465456091672 1814.5999908447266) rotate(0 119.19998168945312 18)"><path d="M9 0 M9 0 C69.68 -0.99, 132.26 1.67, 229.4 0 M9 0 C71.47 1.55, 133.98 0.78, 229.4 0 M229.4 0 C236.58 -0.13, 236.9 4.57, 238.4 9 M229.4 0 C237.67 -0.64, 238.77 1.95, 238.4 9 M238.4 9 C239.76 15.92, 238.97 21.41, 238.4 27 M238.4 9 C237.58 13.69, 237.6 19.09, 238.4 27 M238.4 27 C237.92 31.12, 234.26 36.35, 229.4 36 M238.4 27 C240.46 31.79, 233.39 35.45, 229.4 36 M229.4 36 C181.97 37.3, 137.86 36.53, 9 36 M229.4 36 C142.68 38.58, 56.43 37.61, 9 36 M9 36 C1.79 37.16, -1.75 32.98, 0 27 M9 36 C3.65 38.25, -1.62 30.72, 0 27 M0 27 C0.73 23.11, -0.04 15.41, 0 9 M0 27 C-0.57 22.57, -0.82 16.58, 0 9 M0 9 C0.78 3.46, 4.32 -1.45, 9 0 M0 9 C-1.87 4.85, 2.27 1.37, 9 0" stroke="#1e1e1e" stroke-width="1" fill="none"></path></g><g transform="translate(960.4705461584836 1822.5999908447266) rotate(0 6.575981140136719 10)"><text x="6.575981140136719" y="0" font-family="Virgil, Segoe UI Emoji" font-size="16px" fill="#1e1e1e" text-anchor="middle" style="white-space: pre;" direction="ltr" dominant-baseline="text-before-edge">...</text></g><g transform="translate(961.2465700232297 1783.000015258789) rotate(0 33.407981872558594 10)"><text x="0" y="0" font-family="Virgil, Segoe UI Emoji" font-size="16px" fill="#1e1e1e" text-anchor="start" style="white-space: pre;" direction="ltr" dominant-baseline="text-before-edge">BUCKET</text></g><g stroke-linecap="round" transform="translate(969.4465211951047 1871.2000274658203) rotate(0 171 29)"><path d="M14.5 0 M14.5 0 C130.65 -2.23, 244.96 -1.45, 327.5 0 M14.5 0 C86.07 -0.27, 156.6 -1.05, 327.5 0 M327.5 0 C338.08 1.83, 343.45 5.98, 342 14.5 M327.5 0 C336.67 -1.06, 340.93 2.83, 342 14.5 M342 14.5 C342.06 25.75, 342.93 35.53, 342 43.5 M342 14.5 C342.16 22.58, 342.74 31.57, 342 43.5 M342 43.5 C342.33 53.95, 335.31 57.48, 327.5 58 M342 43.5 C340.35 52.05, 336.13 59.91, 327.5 58 M327.5 58 C219.14 60.36, 109.61 60.58, 14.5 58 M327.5 58 C258.51 59.87, 191.26 59.63, 14.5 58 M14.5 58 C5.37 57.53, -0.43 52.3, 0 43.5 M14.5 58 C6.41 60.06, 0.53 52, 0 43.5 M0 43.5 C0.92 34.98, -1.8 30.02, 0 14.5 M0 43.5 C0.2 35.7, 0.64 27.41, 0 14.5 M0 14.5 C0.39 3.33, 4.19 -1.22, 14.5 0 M0 14.5 C-1.32 5.77, 4.5 1.23, 14.5 0" stroke="#1e1e1e" stroke-width="1" fill="none"></path></g><g stroke-linecap="round" transform="translate(1058.246386917761 1880.8001251220703) rotate(0 116.5 21)"><path d="M10.5 0 M10.5 0 C60.83 -1.98, 110.99 -0.98, 222.5 0 M10.5 0 C76.81 -0.21, 142.49 -0.08, 222.5 0 M222.5 0 C228.35 0.82, 232.71 4.57, 233 10.5 M222.5 0 C229.94 -0.91, 233.88 2.73, 233 10.5 M233 10.5 C234.05 17.6, 232.38 24.35, 233 31.5 M233 10.5 C233.78 18.33, 232.4 25.92, 233 31.5 M233 31.5 C233.36 39.96, 230.18 40.78, 222.5 42 M233 31.5 C232.76 38.66, 230.74 42.45, 222.5 42 M222.5 42 C169.32 44.14, 113.57 43.28, 10.5 42 M222.5 42 C145.47 42.4, 68.77 42.77, 10.5 42 M10.5 42 C4.15 42.98, -0.57 39.62, 0 31.5 M10.5 42 C4.71 42.53, 1.98 38.86, 0 31.5 M0 31.5 C-1.56 28.47, 0.86 22.24, 0 10.5 M0 31.5 C0.37 25.87, 0.03 18.32, 0 10.5 M0 10.5 C0.83 2.15, 2.67 -0.71, 10.5 0 M0 10.5 C2.22 5.63, 5.17 -0.22, 10.5 0" stroke="#1e1e1e" stroke-width="1" fill="none"></path></g><g transform="translate(1072.9384645544797 1891.8001251220703) rotate(0 101.80792236328125 10)"><text x="101.80792236328125" y="0" font-family="Virgil, Segoe UI Emoji" font-size="16px" fill="#2f9e44" text-anchor="middle" style="white-space: pre;" direction="ltr" dominant-baseline="text-before-edge">set [ ...,activeEffectFN ]</text></g><g stroke-linecap="round" transform="translate(851.8466066443234 1869.6000518798828) rotate(0 52.399993896484375 24)"><path d="M12 0 M12 0 C40.55 -1.04, 73.08 -0.58, 92.8 0 M12 0 C43.31 0.61, 74.47 0.51, 92.8 0 M92.8 0 C101.17 1.77, 103.33 2.06, 104.8 12 M92.8 0 C98.95 -0.46, 105.77 1.73, 104.8 12 M104.8 12 C106.46 22.08, 106.42 29.19, 104.8 36 M104.8 12 C104.4 19.53, 104.96 26.91, 104.8 36 M104.8 36 C104.95 43.56, 101.88 48.12, 92.8 48 M104.8 36 C103.47 44.1, 101.33 49.44, 92.8 48 M92.8 48 C69.82 49.86, 42.63 49.74, 12 48 M92.8 48 C61 48.79, 29.1 48.04, 12 48 M12 48 C5.38 49.32, -1.72 45.74, 0 36 M12 48 C5.29 50.14, 0.42 45.52, 0 36 M0 36 C-1.01 30.52, 0.59 22.74, 0 12 M0 36 C0.57 28.65, 0.53 21.14, 0 12 M0 12 C1.73 4.43, 3.56 0.59, 12 0 M0 12 C-1.34 5.68, 4.86 -2.08, 12 0" stroke="#1e1e1e" stroke-width="1" fill="none"></path></g><g transform="translate(893.1266130530148 1883.6000518798828) rotate(0 11.119987487792969 10)"><text x="11.119987487792969" y="0" font-family="Virgil, Segoe UI Emoji" font-size="16px" fill="#1e1e1e" text-anchor="middle" style="white-space: pre;" direction="ltr" dominant-baseline="text-before-edge">obj</text></g><g stroke-linecap="round" transform="translate(983.0465578161984 1878.3999786376953) rotate(0 32.79998779296875 21.20001220703125)"><path d="M10.6 0 M10.6 0 C25.63 -0.12, 39.95 -1.08, 55 0 M10.6 0 C23.66 -0.79, 36.1 -1.04, 55 0 M55 0 C61.46 1.03, 63.84 5.53, 65.6 10.6 M55 0 C62.75 1.49, 66.4 4.62, 65.6 10.6 M65.6 10.6 C66.28 18.88, 67.23 25.21, 65.6 31.8 M65.6 10.6 C64.63 17.2, 65.11 25.86, 65.6 31.8 M65.6 31.8 C64.74 38.02, 63.9 43.67, 55 42.4 M65.6 31.8 C67.46 37.33, 62.51 40.14, 55 42.4 M55 42.4 C44.61 41.72, 30.3 41.77, 10.6 42.4 M55 42.4 C42.43 41.48, 30.63 41.99, 10.6 42.4 M10.6 42.4 C2.16 43.67, -0.14 39.26, 0 31.8 M10.6 42.4 C1.52 44, 0.68 38.06, 0 31.8 M0 31.8 C1.96 25.39, 2.04 21.59, 0 10.6 M0 31.8 C-1.05 27.98, -1.02 22.98, 0 10.6 M0 10.6 C-0.64 3.71, 2.62 -1.04, 10.6 0 M0 10.6 C-1.27 1.71, 5.68 -0.47, 10.6 0" stroke="#1e1e1e" stroke-width="1" fill="none"></path></g><g transform="translate(1010.5105470740109 1889.5999908447266) rotate(0 5.33599853515625 10)"><text x="5.33599853515625" y="0" font-family="Virgil, Segoe UI Emoji" font-size="16px" fill="#1e1e1e" text-anchor="middle" style="white-space: pre;" direction="ltr" dominant-baseline="text-before-edge">a</text></g><g stroke-linecap="round" transform="translate(971.2465700232297 1939.2000274658203) rotate(0 171 29)"><path d="M14.5 0 M14.5 0 C113.47 -0.3, 211.66 -1.49, 327.5 0 M14.5 0 C84.27 0.9, 155.45 0.32, 327.5 0 M327.5 0 C336.73 -1.97, 342.59 3.1, 342 14.5 M327.5 0 C338.9 -0.8, 342.63 3.65, 342 14.5 M342 14.5 C341.82 19.81, 340.25 29.75, 342 43.5 M342 14.5 C341.31 22.27, 342.64 30.03, 342 43.5 M342 43.5 C340.47 54.14, 338.59 57.57, 327.5 58 M342 43.5 C341.58 52.21, 336.28 60.19, 327.5 58 M327.5 58 C227.51 57.79, 129.69 59.73, 14.5 58 M327.5 58 C235.23 59.41, 141.11 58.61, 14.5 58 M14.5 58 C2.99 57.98, 0.04 53.25, 0 43.5 M14.5 58 C7.03 59.62, 1.73 55.14, 0 43.5 M0 43.5 C2.19 34.58, 0.73 25.67, 0 14.5 M0 43.5 C-0.93 32.86, -0.53 24.18, 0 14.5 M0 14.5 C-1.85 6.27, 4.82 -1.37, 14.5 0 M0 14.5 C-1.72 4.51, 5.66 -0.68, 14.5 0" stroke="#1e1e1e" stroke-width="1" fill="none"></path></g><g stroke-linecap="round" transform="translate(1060.046435745886 1948.8001251220703) rotate(0 116.5 21)"><path d="M10.5 0 M10.5 0 C82.2 -1.53, 153.64 0.21, 222.5 0 M10.5 0 C66.5 -0.85, 122.31 -1.13, 222.5 0 M222.5 0 C230.09 -1.74, 234.51 2.81, 233 10.5 M222.5 0 C230.13 -1.19, 231.73 4.38, 233 10.5 M233 10.5 C231.1 19.83, 232.49 26.38, 233 31.5 M233 10.5 C233.62 16.61, 232.11 24.14, 233 31.5 M233 31.5 C234.42 38.07, 229.13 41.17, 222.5 42 M233 31.5 C232.11 40.69, 229.91 43.75, 222.5 42 M222.5 42 C156.14 42.76, 87.01 41.78, 10.5 42 M222.5 42 C149.36 42.86, 76.76 43.25, 10.5 42 M10.5 42 C3.54 42.09, 1.91 39.91, 0 31.5 M10.5 42 C5.23 43.97, -0.43 36.57, 0 31.5 M0 31.5 C0.29 22.26, 0.65 16.16, 0 10.5 M0 31.5 C-0.33 24.95, -0.73 17.99, 0 10.5 M0 10.5 C-0.02 2.13, 2.01 -0.28, 10.5 0 M0 10.5 C0.83 2.82, 3.24 2.17, 10.5 0" stroke="#1e1e1e" stroke-width="1" fill="none"></path></g><g transform="translate(1136.4184831702023 1959.8001251220703) rotate(0 40.127952575683594 10)"><text x="40.127952575683594" y="0" font-family="Virgil, Segoe UI Emoji" font-size="16px" fill="#1e1e1e" text-anchor="middle" style="white-space: pre;" direction="ltr" dominant-baseline="text-before-edge">set [ .....]</text></g><g stroke-linecap="round" transform="translate(984.8466066443234 1946.3999786376953) rotate(0 32.79998779296875 21.20001220703125)"><path d="M10.6 0 M10.6 0 C21.37 -2.25, 33.85 -0.26, 55 0 M10.6 0 C21.22 -0.43, 32.01 0.09, 55 0 M55 0 C62.62 -1.03, 64.5 4.29, 65.6 10.6 M55 0 C64.24 -0.34, 63.54 1.39, 65.6 10.6 M65.6 10.6 C65.81 16.88, 65.08 27, 65.6 31.8 M65.6 10.6 C66.15 15.76, 65.25 20.93, 65.6 31.8 M65.6 31.8 C64.82 40.77, 62.42 43.93, 55 42.4 M65.6 31.8 C66.05 38.01, 61.02 44.18, 55 42.4 M55 42.4 C38.47 44.4, 21.62 41.02, 10.6 42.4 M55 42.4 C43.73 42.44, 33.37 43.1, 10.6 42.4 M10.6 42.4 C5.04 44.11, -0.38 37.19, 0 31.8 M10.6 42.4 C5.09 44.64, -0.87 39.43, 0 31.8 M0 31.8 C0.68 25.23, -1.49 21.27, 0 10.6 M0 31.8 C0.19 23.55, -0.55 16.53, 0 10.6 M0 10.6 C0.72 2.94, 3.31 1.89, 10.6 0 M0 10.6 C-2.13 4.34, 4.53 0.56, 10.6 0" stroke="#1e1e1e" stroke-width="1" fill="none"></path></g><g transform="translate(1013.582599075964 1957.5999908447266) rotate(0 4.063995361328125 10)"><text x="4.063995361328125" y="0" font-family="Virgil, Segoe UI Emoji" font-size="16px" fill="#1e1e1e" text-anchor="middle" style="white-space: pre;" direction="ltr" dominant-baseline="text-before-edge">b</text></g><g stroke-linecap="round" transform="translate(386.45239453397596 1260.5057774320396) rotate(0 92 80.5)"><path d="M117.52 3.28 C129.09 4.96, 141.62 11.67, 151.36 18.94 C161.11 26.22, 170.41 37.1, 176 46.91 C181.6 56.71, 184.93 67.07, 184.94 77.78 C184.95 88.49, 181.08 101.09, 176.06 111.17 C171.03 121.24, 163.83 130.55, 154.81 138.22 C145.79 145.9, 133.79 153.59, 121.92 157.22 C110.05 160.85, 95.84 161.03, 83.61 160 C71.38 158.97, 59.21 156.17, 48.55 151.04 C37.89 145.91, 27.26 138.04, 19.63 129.21 C11.99 120.38, 5.87 108.81, 2.75 98.07 C-0.37 87.33, -1.23 75.49, 0.9 64.79 C3.02 54.09, 8.43 42.71, 15.52 33.87 C22.61 25.02, 32.5 17.3, 43.44 11.71 C54.39 6.12, 68.22 1.45, 81.19 0.3 C94.16 -0.85, 114.22 3.65, 121.24 4.81 C128.26 5.97, 123.8 5.99, 123.31 7.25 M81.81 0.24 C93.44 -2.2, 106.78 0.2, 118.63 3.53 C130.49 6.86, 143.64 12.92, 152.95 20.22 C162.26 27.51, 169.53 37.34, 174.48 47.3 C179.44 57.27, 182.38 69.4, 182.68 80.02 C182.99 90.63, 181.25 100.98, 176.33 110.99 C171.41 121, 162.13 132.62, 153.18 140.08 C144.23 147.53, 134.25 152.46, 122.63 155.71 C111 158.97, 95.93 160.46, 83.44 159.59 C70.96 158.72, 58.61 155.37, 47.7 150.5 C36.79 145.62, 25.56 138.9, 17.98 130.36 C10.41 121.82, 5.19 110.37, 2.24 99.26 C-0.7 88.14, -2.04 74.55, 0.29 63.64 C2.62 52.73, 8.64 42.63, 16.21 33.8 C23.78 24.98, 35 16.09, 45.72 10.69 C56.45 5.29, 74.89 2.86, 80.56 1.4 C86.23 -0.06, 79.58 0.7, 79.76 1.95" stroke="#1e1e1e" stroke-width="1" fill="none"></path></g><g transform="translate(428.3985706648135 1316.0836815465225) rotate(0 50 25)"><text x="50" y="0" font-family="Virgil, Segoe UI Emoji" font-size="20px" fill="#1e1e1e" text-anchor="middle" style="white-space: pre;" direction="ltr" dominant-baseline="text-before-edge">响应式数据</text><text x="50" y="25" font-family="Virgil, Segoe UI Emoji" font-size="20px" fill="#1e1e1e" text-anchor="middle" style="white-space: pre;" direction="ltr" dominant-baseline="text-before-edge">data</text></g><g mask="url(#mask-5eCo95FIaelGEvUpOmv9R)" stroke-linecap="round"><g transform="translate(480.28965044583424 1444.718334185517) rotate(0 1.9287323975798465 45.03210218313677)"><path d="M-0.38 1.19 C0.27 16.12, 3.65 74.9, 4.24 89.3 M1.62 0.77 C2.08 15.37, 2.61 72.89, 3.26 87.48" stroke="#1e1e1e" stroke-width="1" fill="none"></path></g><g transform="translate(480.28965044583424 1444.718334185517) rotate(0 1.9287323975798465 45.03210218313677)"><path d="M-5.71 59.43 C-3.21 66.8, -2.49 77.15, 2.66 88.84 M-8.6 59.4 C-5.24 66.69, -2.72 73.65, 2.66 88.47" stroke="#1e1e1e" stroke-width="1" fill="none"></path></g><g transform="translate(480.28965044583424 1444.718334185517) rotate(0 1.9287323975798465 45.03210218313677)"><path d="M14.8 58.93 C10.62 66.4, 4.64 76.91, 2.66 88.84 M11.92 58.89 C10.15 66.42, 7.55 73.51, 2.66 88.47" stroke="#1e1e1e" stroke-width="1" fill="none"></path></g></g><mask id="mask-5eCo95FIaelGEvUpOmv9R"><rect x="0" y="0" fill="#fff" width="584.6016121320455" height="1633.4230136195476"></rect><rect x="466.4456312889398" y="1479.0706739025322" fill="#000" width="32" height="20" opacity="1"></rect></mask><g transform="translate(466.4456312889398 1479.0706739025322) rotate(0 15.772751554474237 10.679762466121588)"><text x="16" y="0" font-family="Virgil, Segoe UI Emoji" font-size="16px" fill="#1e1e1e" text-anchor="middle" style="white-space: pre;" direction="ltr" dominant-baseline="text-before-edge">修改</text></g><g stroke-linecap="round" transform="translate(339.9953480034077 1540.7560729456086) rotate(0 160.39996337890625 58.399993896484375)"><path d="M29.2 0 M29.2 0 C86.06 1.09, 142.24 2.92, 291.6 0 M29.2 0 C95.6 0.3, 161.74 0.08, 291.6 0 M291.6 0 C311.14 -1.34, 322.27 7.8, 320.8 29.2 M291.6 0 C308.78 -1.13, 320.03 9.33, 320.8 29.2 M320.8 29.2 C318.8 51.38, 318.89 71.69, 320.8 87.6 M320.8 29.2 C321.87 45.88, 321.27 62.38, 320.8 87.6 M320.8 87.6 C322.25 106.06, 312.1 118.21, 291.6 116.8 M320.8 87.6 C320.54 106.5, 309.97 118.92, 291.6 116.8 M291.6 116.8 C187.5 116.89, 83.58 116.99, 29.2 116.8 M291.6 116.8 C199.86 115.85, 106.87 116.05, 29.2 116.8 M29.2 116.8 C10.27 116.31, -0.64 105.3, 0 87.6 M29.2 116.8 C11.26 114.69, -0.81 108.92, 0 87.6 M0 87.6 C-0.41 67.23, -2.04 45.87, 0 29.2 M0 87.6 C-0.6 66.9, 1.13 46.98, 0 29.2 M0 29.2 C1.7 9.57, 11.45 1.7, 29.2 0 M0 29.2 C-0.64 9.9, 10.76 0.61, 29.2 0" stroke="#1e1e1e" stroke-width="1" fill="none"></path></g><g transform="translate(429.71533396532175 1586.656066842093) rotate(0 70.67997741699219 12.5)"><text x="70.67997741699219" y="0" font-family="Virgil, Segoe UI Emoji" font-size="20px" fill="#1e1e1e" text-anchor="middle" style="white-space: pre;" direction="ltr" dominant-baseline="text-before-edge">触发[[ SET ]]</text></g><g mask="url(#mask-8JXLoZ2NeAaQI25lXIBX9)" stroke-linecap="round"><g transform="translate(489.951003015978 1672.343127093705) rotate(0 -2.0318556747424665 55.35755433905081)"><path d="M-0.58 0.21 C-1.31 18.61, -3.64 93.08, -4.14 111.44 M1.31 -0.72 C0.37 17.8, -4.42 90.77, -5.37 109.42" stroke="#1e1e1e" stroke-width="1" fill="none"></path></g><g transform="translate(489.951003015978 1672.343127093705) rotate(0 -2.0318556747424665 55.35755433905081)"><path d="M-13.6 79.78 C-10.66 89.74, -9.79 96.99, -7.23 107.96 M-13.76 79.99 C-10.06 89.95, -8.84 101.42, -6.19 109.64" stroke="#1e1e1e" stroke-width="1" fill="none"></path></g><g transform="translate(489.951003015978 1672.343127093705) rotate(0 -2.0318556747424665 55.35755433905081)"><path d="M6.89 80.99 C3.35 90.47, -2.24 97.33, -7.23 107.96 M6.72 81.2 C3.36 90.79, -2.48 101.85, -6.19 109.64" stroke="#1e1e1e" stroke-width="1" fill="none"></path></g></g><mask id="mask-8JXLoZ2NeAaQI25lXIBX9"><rect x="0" y="0" fill="#fff" width="593.5607158165529" height="1883.5836863879504"></rect><rect x="441.0021646820968" y="1717.963406740828" fill="#000" width="94.2879638671875" height="20" opacity="1"></rect></mask><g transform="translate(441.0021646820968 1717.9634067408278) rotate(0 46.91698265913874 9.737274691928064)"><text x="47.14398193359375" y="0" font-family="Virgil, Segoe UI Emoji" font-size="16px" fill="#1e1e1e" text-anchor="middle" style="white-space: pre;" direction="ltr" dominant-baseline="text-before-edge">得到obj、key</text></g><g stroke-linecap="round" transform="translate(373.366680027608 1795.5836863879501) rotate(0 134.40008544921875 67.60000610351562)"><path d="M32 0 M32 0 C83.76 0.78, 133.59 -0.85, 236.8 0 M32 0 C74.25 -0.6, 117.05 -1.43, 236.8 0 M236.8 0 C260.12 -1.23, 267.32 12.57, 268.8 32 M236.8 0 C256.26 0.5, 268.11 12.91, 268.8 32 M268.8 32 C269.63 47.65, 268.78 59.42, 268.8 103.2 M268.8 32 C269.51 50.79, 268.3 68.48, 268.8 103.2 M268.8 103.2 C269.09 126.35, 258.87 135.07, 236.8 135.2 M268.8 103.2 C269.56 125.9, 258.57 135.34, 236.8 135.2 M236.8 135.2 C174.92 134, 116.25 136, 32 135.2 M236.8 135.2 C175.53 136.51, 115.52 136.25, 32 135.2 M32 135.2 C10.43 134.53, 0.8 124.46, 0 103.2 M32 135.2 C11.87 135.77, 1.1 123.91, 0 103.2 M0 103.2 C1.04 80.85, -0.56 62.92, 0 32 M0 103.2 C-0.52 89.23, 0.41 73.28, 0 32 M0 32 C-1.26 12.3, 9.82 -0.24, 32 0 M0 32 C-1.58 10.49, 12.36 -0.39, 32 0" stroke="#1e1e1e" stroke-width="1" fill="none"></path></g><g transform="translate(464.3107870832721 1853.1836924914658) rotate(0 43.45597839355469 10)"><text x="43.45597839355469" y="0" font-family="Virgil, Segoe UI Emoji" font-size="16px" fill="#1e1e1e" text-anchor="middle" style="white-space: pre;" direction="ltr" dominant-baseline="text-before-edge">执行Trigger</text></g><g mask="url(#mask-efxUMsE5jCaYUpzTwu1sB)" stroke-linecap="round"><g transform="translate(511.4256192921085 1944.363213015754) rotate(0 -4.835461487298801 52.006077265499925)"><path d="M-0.72 -1.13 C-2.23 16.23, -8.47 87.63, -9.78 105.14 M1.11 0.89 C-0.51 17.85, -9.13 86.16, -10.78 103.54" stroke="#1e1e1e" stroke-width="1" fill="none"></path></g><g transform="translate(511.4256192921085 1944.363213015754) rotate(0 -4.835461487298801 52.006077265499925)"><path d="M-19.71 74.23 C-14.24 83.29, -14.51 87.7, -10.81 104.3 M-18.02 74.4 C-15.71 83.48, -13.04 91.46, -11.32 104.48" stroke="#1e1e1e" stroke-width="1" fill="none"></path></g><g transform="translate(511.4256192921085 1944.363213015754) rotate(0 -4.835461487298801 52.006077265499925)"><path d="M0.68 76.52 C1.23 84.91, -3.95 88.76, -10.81 104.3 M2.37 76.69 C-1.23 85.22, -4.47 92.54, -11.32 104.48" stroke="#1e1e1e" stroke-width="1" fill="none"></path></g></g><mask id="mask-efxUMsE5jCaYUpzTwu1sB"><rect x="0" y="0" fill="#fff" width="621.1164894748349" height="2148.506605394112"></rect><rect x="459.4362022671515" y="1986.4349092049329" fill="#000" width="94.2879638671875" height="20" opacity="1"></rect></mask><g transform="translate(459.4362022671515 1986.434909204933) rotate(0 47.15395553765818 9.93438107632096)"><text x="47.14398193359375" y="0" font-family="Virgil, Segoe UI Emoji" font-size="16px" fill="#1e1e1e" text-anchor="middle" style="white-space: pre;" direction="ltr" dominant-baseline="text-before-edge">透传obj、key</text></g><g stroke-linecap="round" transform="translate(384.65617341970244 2060.5066053941123) rotate(0 134.40008544921875 67.60000610351562)"><path d="M32 0 M32 0 C82.7 1.79, 130.16 -0.54, 236.8 0 M32 0 C92.85 0.71, 154.17 0.2, 236.8 0 M236.8 0 C258.49 1.35, 270.41 11.05, 268.8 32 M236.8 0 C256.9 2.17, 267.66 12.08, 268.8 32 M268.8 32 C270.05 57.91, 269.55 84.47, 268.8 103.2 M268.8 32 C269.1 52.83, 269.26 75.79, 268.8 103.2 M268.8 103.2 C267.11 124.21, 259.68 134.25, 236.8 135.2 M268.8 103.2 C267.73 123.53, 258.55 133.84, 236.8 135.2 M236.8 135.2 C177.44 134.43, 116.79 135.39, 32 135.2 M236.8 135.2 C170.07 134.07, 103.24 134.01, 32 135.2 M32 135.2 C9.59 133.31, 1.87 126.46, 0 103.2 M32 135.2 C8.6 137.46, 1.66 124.93, 0 103.2 M0 103.2 C-0.76 81.84, 0.99 61.45, 0 32 M0 103.2 C0.24 83.55, 0.66 64.34, 0 32 M0 32 C-0.12 10.36, 10.33 -1.24, 32 0 M0 32 C1.36 12.24, 12.2 -1.66, 32 0" stroke="#1e1e1e" stroke-width="1" fill="none"></path></g><g transform="translate(437.6402737614993 2108.106611497628) rotate(0 81.41598510742188 20)"><text x="81.41598510742188" y="0" font-family="Virgil, Segoe UI Emoji" font-size="16px" fill="#1e1e1e" text-anchor="middle" style="white-space: pre;" direction="ltr" dominant-baseline="text-before-edge">从bucket中得到对应的</text><text x="81.41598510742188" y="20" font-family="Virgil, Segoe UI Emoji" font-size="16px" fill="#1e1e1e" text-anchor="middle" style="white-space: pre;" direction="ltr" dominant-baseline="text-before-edge">effectFn</text></g><g stroke-linecap="round"><g transform="translate(813.3398316026617 2108.793126580963) rotate(0 -69.08691523127749 14.954764999341705)"><path d="M0.64 -0.18 C-22.31 4.96, -115.88 24.8, -138.81 30.21 M-0.48 -1.32 C-22.95 3.99, -113.73 25.92, -136.51 31.23" stroke="#1e1e1e" stroke-width="1" fill="none"></path></g><g transform="translate(813.3398316026617 2108.793126580963) rotate(0 -69.08691523127749 14.954764999341705)"><path d="M-111.75 13.44 C-118.4 20.07, -120.14 20.69, -134.62 32 M-112.34 14.02 C-120.08 19.36, -126.4 24.42, -137.24 31.97" stroke="#1e1e1e" stroke-width="1" fill="none"></path></g><g transform="translate(813.3398316026617 2108.793126580963) rotate(0 -69.08691523127749 14.954764999341705)"><path d="M-107.01 33.4 C-114.54 35.91, -117.27 32.37, -134.62 32 M-107.59 33.99 C-116.96 33.03, -124.77 31.8, -137.24 31.97" stroke="#1e1e1e" stroke-width="1" fill="none"></path></g></g><mask></mask><g stroke-linecap="round" transform="translate(388.88052629609376 2306.072065238005) rotate(0 115.5780604277424 115.9497167635102)"><path d="M145 29 M145 29 C163.47 47.12, 184.03 68.23, 202.16 87 M145 29 C158.33 43.52, 172.06 56.79, 202.16 87 M202.16 87 C230.88 117.14, 232.56 116.25, 202.16 145 M202.16 87 C229.63 118.2, 232.65 116.7, 202.16 145 M202.16 145 C189.92 156.93, 178.93 170.02, 145 202.9 M202.16 145 C182.18 166.18, 163.13 186.53, 145 202.9 M145 202.9 C114.87 232.51, 114.44 233.45, 87 202.9 M145 202.9 C115.74 231.97, 117.69 233.17, 87 202.9 M87 202.9 C69.78 188.61, 58.01 174.24, 29 145 M87 202.9 C73.88 189.53, 60.91 178.05, 29 145 M29 145 C0.55 116.39, -1.51 115.46, 29 87 M29 145 C2.19 114.5, 1.72 115.11, 29 87 M29 87 C50.81 68.16, 67.96 47.71, 87 29 M29 87 C42.03 73.55, 54.05 62.6, 87 29 M87 29 C116.29 -1.32, 114.01 -1.72, 145 29 M87 29 C116.98 0.91, 117.13 -0.97, 145 29" stroke="#1971c2" stroke-width="1" fill="none"></path></g><g transform="translate(466.0295876378947 2402.04692361976) rotate(0 38.63996887207031 20)"><text x="38.63996887207031" y="0" font-family="Virgil, Segoe UI Emoji" font-size="16px" fill="#1971c2" text-anchor="middle" style="white-space: pre;" direction="ltr" dominant-baseline="text-before-edge">判断条件</text><text x="38.63996887207031" y="20" font-family="Virgil, Segoe UI Emoji" font-size="16px" fill="#1971c2" text-anchor="middle" style="white-space: pre;" direction="ltr" dominant-baseline="text-before-edge">effectFnA</text></g><g stroke-linecap="round"><g transform="translate(504.0869587414661 2210.1906848234426) rotate(0 0.6594072064292575 43.210808140862355)"><path d="M-0.26 0.16 C-0.18 14.52, 0.58 71.44, 0.55 85.61 M1.81 -0.8 C1.71 13.82, -0.5 72.7, -0.49 87.22" stroke="#1971c2" stroke-width="1" fill="none"></path></g><g transform="translate(504.0869587414661 2210.1906848234426) rotate(0 0.6594072064292575 43.210808140862355)"><path d="M-9.89 58.5 C-7.09 65.61, -4.89 75.51, -0.37 87.22 M-9.74 59.57 C-6.39 67.42, -4.26 74.73, 0.45 87.12" stroke="#1971c2" stroke-width="1" fill="none"></path></g><g transform="translate(504.0869587414661 2210.1906848234426) rotate(0 0.6594072064292575 43.210808140862355)"><path d="M10.63 58.93 C7.14 65.86, 3.05 75.64, -0.37 87.22 M10.77 60 C8.12 67.69, 4.24 74.87, 0.45 87.12" stroke="#1971c2" stroke-width="1" fill="none"></path></g></g><mask></mask><g stroke-linecap="round"><g transform="translate(400.152339836834 2460.570873837852) rotate(0 -43.810309986803645 36.393768875045225)"><path d="M-0.33 0.57 C-15.26 12.43, -74.02 59.42, -88.89 71.36 M1.69 -0.18 C-13.37 11.88, -74.01 61.2, -89.31 72.97" stroke="#1971c2" stroke-width="1" fill="none"></path></g><g transform="translate(400.152339836834 2460.570873837852) rotate(0 -43.810309986803645 36.393768875045225)"><path d="M-72.67 49.07 C-78.96 57.05, -83.11 66.14, -91.28 74.38 M-74 48.02 C-78.96 56.08, -83.51 64.2, -89.97 72.59" stroke="#1971c2" stroke-width="1" fill="none"></path></g><g transform="translate(400.152339836834 2460.570873837852) rotate(0 -43.810309986803645 36.393768875045225)"><path d="M-59.91 65.14 C-70.78 67.36, -79.48 70.71, -91.28 74.38 M-61.24 64.09 C-70.35 67.06, -79.03 69.97, -89.97 72.59" stroke="#1971c2" stroke-width="1" fill="none"></path></g></g><mask></mask><g stroke-linecap="round" transform="translate(144.92180144380927 2543.8054022887063) rotate(0 161.5 92.5)"><path d="M202.5 23.25 M202.5 23.25 C225.02 38.28, 251.59 49.84, 282.5 69.75 M202.5 23.25 C232.7 39.89, 263.04 58.53, 282.5 69.75 M282.5 69.75 C321.7 92.3, 321.93 92.84, 282.5 116.25 M282.5 69.75 C321.36 92.22, 321.92 92.27, 282.5 116.25 M282.5 116.25 C263.71 125.54, 244.2 135.36, 202.5 161.75 M282.5 116.25 C263.09 128.58, 242.82 140.34, 202.5 161.75 M202.5 161.75 C162.7 184.86, 160.95 186.89, 121.5 161.75 M202.5 161.75 C163.2 183.84, 160.05 183.96, 121.5 161.75 M121.5 161.75 C105.23 151.74, 87 141.89, 40.5 116.25 M121.5 161.75 C97.62 149.09, 74.45 134.6, 40.5 116.25 M40.5 116.25 C0.94 94.43, -0.11 94.41, 40.5 69.75 M40.5 116.25 C-1.73 91.4, 1.9 91.4, 40.5 69.75 M40.5 69.75 C61.05 58.3, 83.35 43.86, 121.5 23.25 M40.5 69.75 C69.58 53.69, 96.53 37.34, 121.5 23.25 M121.5 23.25 C161.49 -1.14, 161.87 -0.33, 202.5 23.25 M121.5 23.25 C163.9 0.38, 163.17 1.54, 202.5 23.25" stroke="#1971c2" stroke-width="1" fill="none"></path></g><g transform="translate(241.04680144380927 2607.755402288706) rotate(0 65.625 28.799999999999955)"><text x="65.625" y="0" font-family="Cascadia, Segoe UI Emoji" font-size="16px" fill="#1971c2" text-anchor="middle" style="white-space: pre;" direction="ltr" dominant-baseline="text-before-edge">effectFnA</text><text x="65.625" y="19.2" font-family="Cascadia, Segoe UI Emoji" font-size="16px" fill="#1971c2" text-anchor="middle" style="white-space: pre;" direction="ltr" dominant-baseline="text-before-edge">===</text><text x="65.625" y="38.4" font-family="Cascadia, Segoe UI Emoji" font-size="16px" fill="#1971c2" text-anchor="middle" style="white-space: pre;" direction="ltr" dominant-baseline="text-before-edge">activeEffectFn</text></g><g transform="translate(10 2673.8036102960086) rotate(0 128.25 28.799999999999955)"><text x="0" y="0" font-family="Cascadia, Segoe UI Emoji" font-size="16px" fill="#1971c2" text-anchor="start" style="white-space: pre;" direction="ltr" dominant-baseline="text-before-edge">为了解决在回调中</text><text x="0" y="19.2" font-family="Cascadia, Segoe UI Emoji" font-size="16px" fill="#1971c2" text-anchor="start" style="white-space: pre;" direction="ltr" dominant-baseline="text-before-edge">同时修改和访问同一个变量，</text><text x="0" y="38.4" font-family="Cascadia, Segoe UI Emoji" font-size="16px" fill="#1971c2" text-anchor="start" style="white-space: pre;" direction="ltr" dominant-baseline="text-before-edge">导致trigger和track循环调用执行</text></g><g stroke-linecap="round"><g transform="translate(1523.1064240620778 745.3966073044139) rotate(0 -269.6343920930613 15.23496932398325)"><path d="M0.64 -1.02 C-89.24 4.39, -449.09 26.31, -538.93 31.49 M-0.49 1.05 C-90.56 6.17, -450.16 24.55, -539.9 29.51" stroke="#1971c2" stroke-width="1" fill="none"></path></g><g transform="translate(1523.1064240620778 745.3966073044139) rotate(0 -269.6343920930613 15.23496932398325)"><path d="M-514 17.68 C-520.95 22.53, -532.3 26.22, -541.77 31.03 M-511.96 17.58 C-518.66 20.89, -524.34 21.97, -540.19 28.93" stroke="#1971c2" stroke-width="1" fill="none"></path></g><g transform="translate(1523.1064240620778 745.3966073044139) rotate(0 -269.6343920930613 15.23496932398325)"><path d="M-512.91 38.17 C-520.05 36.34, -531.75 33.34, -541.77 31.03 M-510.88 38.07 C-517.83 37.16, -523.73 34, -540.19 28.93" stroke="#1971c2" stroke-width="1" fill="none"></path></g></g><mask></mask><g stroke-linecap="round" transform="translate(770.1766203008941 723.8418440861788) rotate(0 102.9425672601721 53.515251709820234)"><path d="M26.76 0 M26.76 0 C86.47 3.35, 144.77 -0.23, 179.13 0 M26.76 0 C81.83 -1.95, 135.08 -1, 179.13 0 M179.13 0 C198.35 1.88, 204.76 8.02, 205.89 26.76 M179.13 0 C196.51 -1.73, 204.43 9.25, 205.89 26.76 M205.89 26.76 C207.4 37.52, 204.66 51.52, 205.89 80.27 M205.89 26.76 C205.86 38.79, 205.79 49.39, 205.89 80.27 M205.89 80.27 C207.23 99.65, 196.75 108.49, 179.13 107.03 M205.89 80.27 C207.16 97.52, 195.29 108.25, 179.13 107.03 M179.13 107.03 C148.87 107.9, 113.43 104.75, 26.76 107.03 M179.13 107.03 C123.44 106.92, 66.58 107.59, 26.76 107.03 M26.76 107.03 C9.06 106.05, 0.84 97.34, 0 80.27 M26.76 107.03 C8.15 106.24, -2.04 97.67, 0 80.27 M0 80.27 C0.72 62.12, -0.04 41.57, 0 26.76 M0 80.27 C0.31 62.23, 0.04 43.67, 0 26.76 M0 26.76 C-1.42 7.54, 7.92 -0.41, 26.76 0 M0 26.76 C2.12 9.58, 9.38 0.6, 26.76 0" stroke="#1971c2" stroke-width="1" fill="none"></path></g><g transform="translate(824.3066875610662 767.757095795999) rotate(0 48.8125 9.600000000000023)"><text x="48.8125" y="0" font-family="Cascadia, Segoe UI Emoji" font-size="16px" fill="#1971c2" text-anchor="middle" style="white-space: pre;" direction="ltr" dominant-baseline="text-before-edge">执行cleanUp</text></g><g stroke-linecap="round"><g transform="translate(1520.6464723669797 1706.418730927067) rotate(0 -180.89084652920445 -44.04188930342457)"><path d="M0.03 -0.83 C-60.44 -15.86, -301.81 -74.89, -361.82 -89.43 M-1.41 1.35 C-61.61 -13.57, -299.81 -72.91, -359.62 -88.13" stroke="#1971c2" stroke-width="1" fill="none"></path></g><g transform="translate(1520.6464723669797 1706.418730927067) rotate(0 -180.89084652920445 -44.04188930342457)"><path d="M-331.16 -92.85 C-342.06 -88.59, -351.41 -87.79, -360.19 -88.36 M-329.73 -90.34 C-339.52 -90.07, -349.33 -89.89, -358.88 -87.57" stroke="#1971c2" stroke-width="1" fill="none"></path></g><g transform="translate(1520.6464723669797 1706.418730927067) rotate(0 -180.89084652920445 -44.04188930342457)"><path d="M-336.17 -72.95 C-345.24 -76.41, -352.65 -83.32, -360.19 -88.36 M-334.73 -70.44 C-343.04 -76.41, -351.27 -82.5, -358.88 -87.57" stroke="#1971c2" stroke-width="1" fill="none"></path></g></g><mask></mask><g stroke-linecap="round" transform="translate(846.2399068271152 1560.2451203385917) rotate(0 190.5 24.5)"><path d="M12.25 0 M12.25 0 C87.43 -1.63, 160.13 -1.42, 368.75 0 M12.25 0 C100.16 0.1, 188.7 -0.26, 368.75 0 M368.75 0 C377.7 1.69, 379.77 5.48, 381 12.25 M368.75 0 C377.35 1.59, 379.47 1.93, 381 12.25 M381 12.25 C382.16 18.92, 382.02 25.45, 381 36.75 M381 12.25 C381.03 18.14, 380.79 22.61, 381 36.75 M381 36.75 C379.3 43.35, 377.5 48.87, 368.75 49 M381 36.75 C381.15 44.91, 377.96 49.71, 368.75 49 M368.75 49 C227.36 49.95, 86.45 48.51, 12.25 49 M368.75 49 C228.58 47.73, 88.3 47.56, 12.25 49 M12.25 49 C3.19 48.31, 0.77 45.95, 0 36.75 M12.25 49 C3.77 47.71, -1.7 44.1, 0 36.75 M0 36.75 C0.16 27.71, -0.54 23.98, 0 12.25 M0 36.75 C0.13 27.84, -0.61 20.66, 0 12.25 M0 12.25 C0.74 5.28, 4 -0.82, 12.25 0 M0 12.25 C1.56 4.31, 3.96 0.69, 12.25 0" stroke="#1971c2" stroke-width="1" fill="none"></path></g><g transform="translate(900.8024068271152 1575.1451203385918) rotate(0 135.9375 9.600000000000023)"><text x="135.9375" y="0" font-family="Cascadia, Segoe UI Emoji" font-size="16px" fill="#1971c2" text-anchor="middle" style="white-space: pre;" direction="ltr" dominant-baseline="text-before-edge">activeEffectFn.deps.push(set)</text></g><g stroke-linecap="round"><g transform="translate(758.2843547446663 781.259317201174) rotate(0 -87.3234413289216 -4.709535400748678)"><path d="M-0.86 -0.51 C-30.02 -1.56, -145.83 -5.86, -174.62 -7.01 M0.9 -1.83 C-28.46 -3.17, -146.43 -8.19, -175.54 -8.91" stroke="#1971c2" stroke-width="1" fill="none"></path></g><g transform="translate(758.2843547446663 781.259317201174) rotate(0 -87.3234413289216 -4.709535400748678)"><path d="M-147.87 -18.09 C-155.8 -13.48, -165.93 -11.71, -176.27 -8.78 M-147.58 -17.55 C-153.53 -17.17, -158.28 -15.29, -175.84 -9.34" stroke="#1971c2" stroke-width="1" fill="none"></path></g><g transform="translate(758.2843547446663 781.259317201174) rotate(0 -87.3234413289216 -4.709535400748678)"><path d="M-148.58 2.41 C-156.15 0.24, -166.05 -4.77, -176.27 -8.78 M-148.29 2.96 C-154.19 -0.89, -158.8 -3.23, -175.84 -9.34" stroke="#1971c2" stroke-width="1" fill="none"></path></g></g><mask></mask><g stroke-linecap="round" transform="translate(273.8598086050148 697.0842324079676) rotate(0 147.16700599715023 76.55658356433082)"><path d="M32 0 M32 0 C78.46 1.59, 125.69 -0.87, 262.33 0 M32 0 C110.83 0.74, 190.92 0.34, 262.33 0 M262.33 0 C284.79 0.97, 293.54 9.94, 294.33 32 M262.33 0 C285.61 1.97, 294.73 12.89, 294.33 32 M294.33 32 C292.7 49.74, 294.7 70.72, 294.33 121.11 M294.33 32 C293.97 56.58, 292.78 83.42, 294.33 121.11 M294.33 121.11 C294.83 143.06, 281.73 153.27, 262.33 153.11 M294.33 121.11 C294.87 140.53, 284.06 153.34, 262.33 153.11 M262.33 153.11 C175.08 156.16, 85.64 154.25, 32 153.11 M262.33 153.11 C184.51 153.58, 105.97 153.07, 32 153.11 M32 153.11 C12.59 152.78, 1.63 142.94, 0 121.11 M32 153.11 C9.29 151.2, 0.32 143.98, 0 121.11 M0 121.11 C0.84 101.2, -0.01 84.04, 0 32 M0 121.11 C0.02 102.79, 0.39 82.87, 0 32 M0 32 C-1.41 11.33, 10.23 -1.65, 32 0 M0 32 C-0.82 12.83, 8.48 0.21, 32 0" stroke="#1971c2" stroke-width="1" fill="none"></path></g><g transform="translate(304.901814602165 735.2408159722985) rotate(0 116.125 38.39999999999998)"><text x="116.125" y="0" font-family="Cascadia, Segoe UI Emoji" font-size="16px" fill="#1971c2" text-anchor="middle" style="white-space: pre;" direction="ltr" dominant-baseline="text-before-edge">在activeEffectFn上</text><text x="116.125" y="19.2" font-family="Cascadia, Segoe UI Emoji" font-size="16px" fill="#1971c2" text-anchor="middle" style="white-space: pre;" direction="ltr" dominant-baseline="text-before-edge">取出所有的Set，在这些Set中，</text><text x="116.125" y="38.4" font-family="Cascadia, Segoe UI Emoji" font-size="16px" fill="#1971c2" text-anchor="middle" style="white-space: pre;" direction="ltr" dominant-baseline="text-before-edge">删掉自己,同时</text><text x="116.125" y="57.599999999999994" font-family="Cascadia, Segoe UI Emoji" font-size="16px" fill="#1971c2" text-anchor="middle" style="white-space: pre;" direction="ltr" dominant-baseline="text-before-edge">deps.length=0</text></g><g transform="translate(910.8790454852711 1456.5947109157473) rotate(0 150.3125 48)"><text x="0" y="0" font-family="Cascadia, Segoe UI Emoji" font-size="16px" fill="#1971c2" text-anchor="start" style="white-space: pre;" direction="ltr" dominant-baseline="text-before-edge">在activeEffectFn上保存Set到deps中</text><text x="0" y="19.2" font-family="Cascadia, Segoe UI Emoji" font-size="16px" fill="#1971c2" text-anchor="start" style="white-space: pre;" direction="ltr" dominant-baseline="text-before-edge"></text><text x="0" y="38.4" font-family="Cascadia, Segoe UI Emoji" font-size="16px" fill="#1971c2" text-anchor="start" style="white-space: pre;" direction="ltr" dominant-baseline="text-before-edge">deps记录了哪些set用到了这个effectFn</text><text x="0" y="57.599999999999994" font-family="Cascadia, Segoe UI Emoji" font-size="16px" fill="#1971c2" text-anchor="start" style="white-space: pre;" direction="ltr" dominant-baseline="text-before-edge"></text><text x="0" y="76.8" font-family="Cascadia, Segoe UI Emoji" font-size="16px" fill="#1971c2" text-anchor="start" style="white-space: pre;" direction="ltr" dominant-baseline="text-before-edge">为了cleanUp</text></g><g mask="url(#mask-YSCz6pyqI8wgEAIhopkGf)" stroke-linecap="round"><g transform="translate(1531.9704751448774 1748.554232723812) rotate(0 -142.44682893528733 56.74808504390478)"><path d="M0.52 0.07 C-34.6 -0.38, -164.02 -24.44, -211.61 -3.41 C-259.2 17.62, -272.53 104.6, -285.01 126.24 M-0.67 -0.94 C-35.82 -1.62, -164.8 -26.24, -212.26 -4.9 C-259.72 16.43, -273 105.07, -285.41 127.08" stroke="#2f9e44" stroke-width="1" fill="none"></path></g><g transform="translate(1531.9704751448774 1748.554232723812) rotate(0 -142.44682893528733 56.74808504390478)"><path d="M-285.41 98.03 C-283.69 105, -287.17 109.2, -286.57 126.03 M-284.53 96.96 C-286.11 104.35, -285.4 111.2, -285.69 127.1" stroke="#2f9e44" stroke-width="1" fill="none"></path></g><g transform="translate(1531.9704751448774 1748.554232723812) rotate(0 -142.44682893528733 56.74808504390478)"><path d="M-266.1 104.98 C-268.68 110.47, -276.5 113.11, -286.57 126.03 M-265.22 103.91 C-271.3 109.79, -275.08 115.01, -285.69 127.1" stroke="#2f9e44" stroke-width="1" fill="none"></path></g></g><mask id="mask-YSCz6pyqI8wgEAIhopkGf"><rect x="0" y="0" fill="#fff" width="1917.6892071472946" height="1980.306536113117"></rect><rect x="1241.475472276433" y="1724.7582330132652" fill="#000" width="156.625" height="38.4" opacity="1"></rect></mask><g transform="translate(1241.475472276433 1724.7582330132655) rotate(0 148.048173933157 80.54408475445132)"><text x="78.3125" y="0" font-family="Cascadia, Segoe UI Emoji" font-size="16px" fill="#2f9e44" text-anchor="middle" style="white-space: pre;" direction="ltr" dominant-baseline="text-before-edge">把activeEffectFN </text><text x="78.3125" y="19.2" font-family="Cascadia, Segoe UI Emoji" font-size="16px" fill="#2f9e44" text-anchor="middle" style="white-space: pre;" direction="ltr" dominant-baseline="text-before-edge">加入到对应的Set中</text></g><g mask="url(#mask-mkrDU6EWUYETHCE9lAWzD)" stroke-linecap="round"><g transform="translate(1208.717638363934 1884.1366040534306) rotate(0 -44.03893507809386 -133.16119148420125)"><path d="M0.7 -0.46 C-13.89 -44.78, -73.19 -221.73, -88.23 -265.86 M-0.39 -1.75 C-15.01 -45.88, -73.74 -220.13, -88.78 -264.39" stroke="#2f9e44" stroke-width="1" fill="none"></path></g><g transform="translate(1208.717638363934 1884.1366040534306) rotate(0 -44.03893507809386 -133.16119148420125)"><path d="M-70.81 -239.71 C-74.83 -247.5, -78.38 -253.23, -90.29 -263.03 M-69.38 -240.55 C-74.43 -245.01, -76.66 -250.33, -89.22 -265.25" stroke="#2f9e44" stroke-width="1" fill="none"></path></g><g transform="translate(1208.717638363934 1884.1366040534306) rotate(0 -44.03893507809386 -133.16119148420125)"><path d="M-90.25 -233.14 C-89.53 -242.64, -88.35 -249.97, -90.29 -263.03 M-88.82 -233.98 C-89.92 -239.7, -88.24 -246.34, -89.22 -265.25" stroke="#2f9e44" stroke-width="1" fill="none"></path></g></g><mask id="mask-mkrDU6EWUYETHCE9lAWzD"><rect x="0" y="0" fill="#fff" width="1397.7032131920037" height="2249.8629562329643"></rect><rect x="1134.162350949899" y="1741.6734279636637" fill="#000" width="60.125" height="19.2" opacity="1"></rect></mask><g transform="translate(1134.1623509498988 1741.6734279636637) rotate(0 30.51635233594112 9.301984605565622)"><text x="30.0625" y="0" font-family="Cascadia, Segoe UI Emoji" font-size="16px" fill="#2f9e44" text-anchor="middle" style="white-space: pre;" direction="ltr" dominant-baseline="text-before-edge">新的set</text></g></svg>